<?xml version="1.0" encoding="utf-8"?>
<!-- Generator: Adobe Illustrator 24.0.3, SVG Export Plug-In . SVG Version: 6.00 Build 0)  -->
<svg version="1.1" id="Layer_1" xmlns="http://www.w3.org/2000/svg" xmlns:xlink="http://www.w3.org/1999/xlink" x="0px" y="0px"
	 viewBox="0 0 800 800" style="enable-background:new 0 0 800 800;" xml:space="preserve">
<style type="text/css">
	.st0{fill-rule:evenodd;clip-rule:evenodd;fill:#FFFFFF;}
</style>
<path class="st0" d="M337.6,493.8c1.2-3.6,5.2-5.1,8-7.1c6.1-4.4,12.3-9,17.2-14.7c33.2-46.3-43.9-63.5-75.6-71.8
	c-10.2-2.3-20.5-6.1-26.9-14.9c-0.4-1.4,5.7-5,7.1-6.4c21.2-17.9,88-48.6,87.6-77.3c-4.6-43.7-69.3-16.3-94.8-8.4
	c-28.8,9.2-57.7,19.3-86.5,28.6c-10,2.1-71.2,24.3-58.1-1.3c15.3-31,43.7-52.7,71.5-72c19.1-13.1,39.4-25,60.8-33.8
	c19.4-7.9,39.9-13.3,59.3-21.3c22.2-10.2,44.9-24,59.1-44.2c5-8.5,5.5-19.4,1.9-28.5c-7.5-17.2-29.8-16.7-45.6-14.4
	c-36.1,5.4-71.5,15.5-106.5,25.9c-14.3,5.8-55.5,12.4-57,30c0.4,4.7,1.3,10,4.2,13.9c1.6,0.9,3.2-2.6,4.6-3.4
	c14.5-11.6,34.1-14.3,51.3-20.7c32.8-9.8,65.9-18.9,99.5-25.2c12.8-1.8,27.4-3.5,39.3,2.6c0.9,0.6,1.9,1.1,2.9,1.7
	c-1.5,1.7-2.8,3.5-4.2,5.3c-23.7,29.8-61.5,41.1-96.4,52.4c-44,15.7-84.5,41.6-119,73c-18.2,17.9-37.8,40.8-36.3,67.9
	c1.2,9.3,5,21.1,15.7,22.7c10.5,1.9,21.3-1.3,31.4-3.9c15.7-3.7,31.3-8.6,46.5-13.9c33.8-11.2,67.8-23.1,101.9-33.4
	c13.2-3.2,27.8-5.2,40.9-0.5c-14.7,18.8-41.5,33.7-62.7,47.9c-9.2,7.1-21.5,12.2-27.1,22.9c-4.7,13.6,2.3,29.3,13.4,37.7
	c26.3,16.8,60.5,15.9,87,33.1c2.8,2,7.8,4.2,8.8,7.2c-4.2,6-9.9,10.8-15.9,15c-5,3.5-10.7,7-13.1,12.9c-1.7,4.6-1.6,9.9-0.2,14.5
	C332.7,494.5,336.6,499.6,337.6,493.8"/>
<path class="st0" d="M296.5,498.7c0.2-0.7,0.8-1.6,0.9-2.3c-0.4-2.1,2.7-5.4,3.6-7.7c3.4-7.8,5.9-16,8.1-24.2
	c1.8-7.4,5-14.5,6.6-21.9c1.4-6.7,1.4-13.6,2-20.4c0.9-14.7,8.7-29.4,4.2-44.1c-6.3-16.9-19.5-25.8-14-45.9
	c2-13.6,9.1-25.5,12.9-38.5c4.7-17.7-5.6-34.5-15.8-48c-2-13.1,8.5-24.3,14.4-35.1c13.3-24.3-18.7-34.5-20.4-56.1
	c-0.4-14.4-5.5-30.2,1-43.7c2.7-4.8,8.1-7.5,13.5-8c0.5-0.1,1.6-0.3,1-1c-3.1-2.4-7.5-1.4-11.2-1c-10,1.4-18.1,9.7-18.3,19.9
	c-0.5,7.2,0.7,14.4,1.5,21.6c0.6,5.7,0.6,11.6,2.1,17.2c2.5,9.7,10.9,16.3,16.6,24.2c11.4,14.6,3.4,26.2-5.4,39.1
	c-3.8,7.1-9.3,16.7-4.8,24.6c15.4,20.3,20,38,8.3,61.5c-6.3,16-13.3,35.5-2.4,51c5.3,9.1,12.3,18.6,11.1,29.7
	c-1.1,10.7-4.7,21.1-5.7,31.9c-0.7,14.7-4.4,28.9-8.9,42.9c-2.2,9.2-5.2,18.3-9.1,27c-0.8,2.5-4.1,4.7-3.1,7.4
	C288.4,500,293.3,500.5,296.5,498.7"/>
<path class="st0" d="M322.3,491.3c1.2-6-0.4-12.1-1.2-18.1c-1.3-11.9-3-23.8-4.8-35.6c-5-34.5-19.9-66.1-35-97.2
	c-9-21.1-17.8-42.6-25.6-64.2c-6-18.4-11.6-37.1-18.4-55.2c-1.6-4.9-3.2-9.9-3.5-15.1c0.5-0.6,2.2,0.2,3,0.2
	c8.1,1.5,16.6,3.4,24.7,1.5c12.8-2.7,21.5-16.5,16.1-29c-4-10.9-13.9-18.1-20.6-27.1c-1.8-2.5-8.9-11.9-4.5-13.4
	c11.5,0.8,20.4,10.3,31.8,11.5c5.2,0.5,10.2-2.6,13.5-6.4c1.7-3.9-2.1-8.4-4-11.7c-3.7-5.2-7.4-10.5-9.9-16.5
	c-0.6-1.6-0.5-3.4-0.8-5c1,0.3,2,0.8,2.9,1.3c5.8,3.9,11.4,8.3,17.3,12.3c1.5,1.6,8.5,4.6,7.6,6.3c1.8,2.1,6.8-1.6,8.5-3.1
	c1.2-1.3,3.4-3.3,3.3-5.1c-4.5-4.9-10.8-7.9-16-11.9c-7-5.3-16-13.4-25-7.5c-14.5,8.7-10.9,21.6-1.5,32.7
	c-5.8-2.7-11.9-5.7-18.4-5.7c-9.6,0.4-21,7.3-21.5,17.7c2.3,19.9,31.9,28.5,27.7,50.4c-3.1,5.6-18.3-1.1-23.9-1.2
	c-7.9-1.5-16.2,2.3-20.2,9.2c-4.1,9.3,1.8,19.5,4,28.7c1.9,5.8,4,11.9,5.9,17.7c0.4,2,2.3,4.3,1,6.1c-0.3,1.2,1.3,2.2,1.5,3.4
	c1.8,5.5-0.4,11.5,0.8,17.1c11.4,38,29.1,74,40.9,112c8.8,26,14.6,53,22.8,79.2c3.4,9.8,4.6,20.8,10.7,29.5
	C315.4,500.4,320.5,494.3,322.3,491.3"/>
<path class="st0" d="M242.9,383.2c3,25.5,8.1,50.7,15.5,75.2c2.2,11.2,4.8,23.7,13,32c3.3,2.8,7.2,5,11.6,5.3c2.8,1.6,5.7,3.3,9,3.8
	c17,3,29.8-13.8,25-29.8c-20.7-82.1-39.8-141.2-17.6-226.6c5.3-25.3,12.6-50.6,15.8-76.3c0.9-10.5,0.6-21,2.3-31.5
	c0.6-5.6,0.4-11.2-0.1-16.8c0.3-5.4,0.3-11.5-3.2-16c-2.9-3.6-6.6-2.1-10.3-2.1c-13.2-3.5-23.2,8.3-27.1,19.6
	c-12,33.2-10.1,69.3-16,103.6c-3.8,18.1-11.7,35.1-16.6,52.9C234.6,311.3,238.4,348,242.9,383.2"/>
<path class="st0" d="M306.8,494.3c-9.3,9.8-26.8,5.5-36.1-2.3c-29.6-37,20.6-106.8,29.1-147.2c11.4-34.4,1.7-68-17.4-97.4
	c-20.2-32-25.7-59.3-16.5-96.2c4-19,25.5-56.4,48.4-50.5c5.5,1.1,20.9,1.8,20.4,9.2c3.9-2.4,8,2.6,10.4,5.3c1.4,5.3,0.7,12,0.2,17.7
	c-2.1,9.2-9.6,15.7-13.2,24.2c-2.9,8.5,7.1,3.7,10.3,1c9.5-5.7,25.9,2.9,23,14.8c1.1,8.4-32.8,39.9-21.1,37.2
	c8.6-3.9,18.5,0.8,23,8.7c5.3,9.6-6.3,17.3-6.4,26.6c-0.1,2.9,1.6,6.1,4.4,7.1c1.2,0,2.4-0.6,3.7-0.7c16.5-1.3,28.8,14.2,18.2,28.9
	c-4.1,7.5-11.7,12.9-14.8,20.8c-0.8,1.5,1.2,4.2-0.4,5.1c2.5,0.3,4.5-1.2,6.8-2.1c7.9-3.6,20.6-3.6,22.6,6.9
	c0.1,10.5-18.9,30.5-25.2,39.9c-11.3,14.7-20.8,31.4-24.3,49.7c-2.8,13.5-2,28-8.6,40.5c-4.2,8.4-10.4,15.6-15.6,23.3
	C320.7,474.6,314.7,485.2,306.8,494.3"/>
<path class="st0" d="M351,479.8c-32.6,10.2-67.6,25.6-101.7,13.2c-13.9-5.3-33.5-15.1-30.8-32.8c5.7-27.2,37.3-34.4,54.2-52.8
	c10.1-15.5-15.2-23.1-26.2-26c-13.7-4.7-27-13.6-32.9-27.2c-6.3-13.6-1.2-31.4,11.9-39c8.5-5,18.6-6.4,27.1-11.2
	c13.1-5.8,34.9-33.7,7.4-34.3c-27-3.9-44.8-23.3-45.4-50.7c-1.2-22.4,4.7-38.6,20.7-54.3c6.3-7.4,7.5-17.6,12.6-25.7
	c3.4-4.7,7.6-9.5,12.5-12.7c0.5-0.1,1.1,0.1,1-0.6c0.3-4,5.4-4.1,8.2-5.6c16.5-6.1,33.2-12.7,50.6-16.1c28.4-6.3,60.6,17.5,57,47.8
	c-3,35.5-51,45.7-49.6,80.2c-0.4,23.8,38.9,7,61.5,20.6c28.5,14.5,44.1,49.4,16.9,73.5c-7.1,7.1-17.3,9.3-25.6,14.6
	c-9.1,5.4-18.6,11.3-24.3,20.4c-4.7,7.2-6.7,20.5,3.8,23.4c14.6,3.3,30.6-1.7,44.5,5.7c23.7,10.3,17.3,41.6,4,58.1
	C394.3,465.9,371.8,473.4,351,479.8"/>
<path class="st0" d="M263.8,474.5c-10.8-30.5-15-63.3-15.7-95.6c-0.4-24.2,1.7-48.7-3-72.6c-5.7-33.6-9.6-68.4-4.7-102.4
	c4.5-16.5,5.8-33.8,10.7-50.2c9.5-22.2,21.5-58.6,51.9-53.2c21.5,5.5,46.3,20.2,57,40.2c9.7,19.6-5.5,41.7-25.1,47.1
	c-8.6,5.1-45.5-4.8-38.8,12.4c11,20.3,37,22.4,53.2,36.7c18.2,15.9,8.2,46-12.4,54.7c-8.7,5.1-20.1,4.7-28.1,10.9
	c-5.5,9.5,13.7,17.3,21,18.1c23.9,2.6,38.8,20.2,31.3,44.2c-3.4,9.8-11,17.4-15.7,26.5c-9.7,18.9,3.9,39.2,4.6,58.6
	C355.2,497.9,281.9,521.6,263.8,474.5"/>
<path class="st0" d="M177,456.4c-10.3-13.7-17.6-29.1-23.2-45.2c-6.8-15.7-13.8-31.6-16.3-48.6c-3.8-21.4,1-42.9-0.3-64.4
	c1.9-18,3.2-36.2,5.4-54.2c4-21.7,13.1-42.4,22.9-62.1c8.6-14.4,21.3-47.4,39.6-49.1c3.7,0.9,4.4,6,2.8,9c1.4,2.6,6.5,3.8,9.9,4.1
	c40.5,7.5,81.3-0.9,121.3-7.5c26-2.5,55.9-12.4,80.2,0.9c19.6,16.8-9.9,40.8-26.4,46c-14.4,7.4-81.7,16.1-84.9,28.4
	c7,14.6,89.7,3.7,108.2,10.1c25.4,7.4,5.7,36.8-9.9,44.1c-13.9,8-29.7,11.9-44.6,17.7c-16.9,6.7-34.5,13.3-49.5,23.6
	c3.2,1.1,5.2,4.7,8.4,6c14.1,5.2,29.6,0.2,44.2,0.9c28.1,1,48.1,16.5,24.1,42c-16.3,16-38.5,24.3-59.1,33.3
	c-24.1,10-47,23.2-70.4,34.7c-16.6,8.3-34.2,14.9-50.7,23.4c-6,3-12.3,6.3-18.1,9.7C185.1,463,180.7,462.2,177,456.4"/>
<path class="st0" d="M254,381.4c2.2,19.3,5.9,38.4,9.3,57.5c3.1,13.3,3.6,41.3,19.2,45.3c1.9,0.4,3.9,0.4,5.8,0.1c0,0.5,0,1.1,0,1.6
	c-0.5,23,30.8,13.8,37.6-0.5c5.9-18.1,1.7-40.1,3.5-59.1c0.9-43,1.7-86.8,1.6-129.8c-0.6-51.8,1.7-104.1-5.4-155.5
	c-3.1-24.2-19.8-57.6-45.8-31.3c-13.5,19.7-18.3,44.5-21.9,67.7C249.8,244.8,245.9,313.6,254,381.4"/>
<path class="st0" d="M239.7,452.5c0.7-7.2,4.9-13.5,8.9-19.4c6.1-6.2,11.7-16.6,5.2-24.5c-10.6-14-33.9-23.4-27.9-44.4
	c3.4-13.8,16.1-22.3,23.8-33.6c14.8-23-16.3-39.8-22.6-59.9c-7.7-22.8,6.1-43.7,25.9-54.4c19.9-11.3,9-22.9,0.4-37.6
	c-28-42.4,54.2-107.9,85.8-63.5c9.6,11.4,11.5,28.7,4.6,41.9c-11,15.5-6.8,29.2,3.5,43.6c17.2,22,30,54.4,0.8,72.7
	c-2.8,2.7-7.1,1.9-10.1,4.2c-1.4,0.9-1.1,2.7-0.7,4.1c0.9,4.5,5.1,6.7,8.6,9c9.4,8.5,21,20.8,24.4,33.2c2.7,14.1-6.1,28.3-16.6,37.1
	c-2.7,3.5-11.1,0.9-11.1,6.2c3.3,10.4,14.6,15.4,21.5,23.1c12.6,12.5,4.8,32.1-7.8,41.4c-4.6,3.7-9.8,7.2-15.6,8.4
	c-4.6,1.7-22.2,2.2-22.2,7.7c0,3.5,0.6,6.9,1.6,10.2c1.7,8,0.3,17.2-3.6,24.4C293.9,519.1,238.7,490,239.7,452.5"/>
<path class="st0" d="M338.8,289.9c-0.9-24.8-4.3-50.1-1.9-74.8c1.7-11,8-20.9,8.2-32.2c0.6-9.3-5.9-17.5-15.2-18.9
	c-5.9-1.2-12.2,0.1-18-2c-18.4-7.6-2.2-29,2.1-41.2c1.9-5.6,4.6-13.3-0.2-18.2c-4.3-3.4-11.1-3.4-14.6,1.1
	c-10.7,15.6-21.6,31.4-30.3,48.3c-5.8,10.6-11.9,20.5-12.3,33c-6.9,71.6-34.8,253.8,16.2,305.1c24.4,22.8,51.7,2.1,59.9-24.7
	C353.6,409.4,342.7,348,338.8,289.9"/>
<path class="st0" d="M123.2,309.4c-3.5-27.5,17.2-52.2,39.9-65c14.6-7.5,31.7-8.8,46.1-16.8c15.7-8,24.9-24.2,26.5-41.4
	c2.9-33.8,17.7-75.3,53.5-85.5c29.6-3.4,56.6,15.1,41.4,46.8c-3.4,9-5.4,19.8,0.6,28.1c27.9,32.6-4.1,67-25.9,92.1
	c-15.5,21.2-24.8,48.1-20.3,74.4c6.3,42.2,44.7,69.4,55.8,109.6c7.2,24.4-10.3,49.1-36.2,48.3c-11.3,0.3-23.7-2.1-31.7-10.7
	c-14.6-16.8-20.1-39.4-28.5-59.6c-7.9-20.3-19-41.1-38.3-52.5c-13.9-8.7-30.8-9.9-45.8-16C139.5,352.6,126.9,330.7,123.2,309.4"/>
<path class="st0" d="M158.6,407.8c2-19.1,13.3-35.5,18-53.8c14.9-67.5-44.2-139.5-4.4-203.2c37.4-57.3,77.4,18.7,111.7,38.1
	c19.5,10.6,41.6,15.5,61.9,24.2c19.6,8.2,38.2,20.1,52.6,35.9c8.6,9.6,15.5,23.1,11.5,36.2c-4,13.2-16.6,24.3-30.7,24.2
	c-9.7,0.5-14.9-8.9-22.6-12.8c-20.1-5.5-2.5,24.1,1.8,31.1c8.4,12.8,19.8,23.8,30.5,34.6c11.5,11.5,23,24,29.3,39.2
	c7.9,19,15,46.6-3,62c-23.5,17.1-52.6-1.3-65.1-23.3c-6.8-11.2-11.5-24.5-21.8-33c-8.6-2.8-4.7,14.2-4.9,18.7
	c-0.7,17.9-14.8,36.6-34.2,34.2c-13.8-1.6-24.5-13.2-28.9-25.8c-2.3-5.8-3.4-13.4-9.2-16.7c-5.8-2.1-13.2,2.2-16.3,7.1
	c-2.7,5.9-6.5,11.2-11.2,15.6C188.6,472.9,151.3,457.3,158.6,407.8"/>
<path class="st0" d="M175.4,309.9c26.5-63.9-1.7-66.1,3.3-125.3c2.1-25.8,13.5-53.2,37.4-65.8c43.9-23.3,94.2,6.6,119.1,44.1
	c14.9,19.9,23.1,43.6,33.3,65.9c3.4,6.5,7.2,13,10.6,19.4c3.2,6.2,2,5.2,7.3,9.4c4.3,8.6,6,19.9,8.2,29.3c6.5,33.9,7,69,6.9,103.4
	c-0.6,27.7,2.4,58.1-11.2,83.4c-16.5,24.7-42.5,7.2-48.7-15.9c-6.1-19.4-4.2-40.2-6.4-60.2c-5.9,23.3-18.9,55.9-48.3,39.1
	c-17.7-10.9-12.5-34.1-12.1-51.5c0.2-5.3-3.8-7.9-6.6-2.4c-2.1,4.2-2.3,9.2-4.1,13.4c-10.3,22.2-48.6,20.3-48.5-7.1
	c0.4-14.8,7.1-28.3,10.3-42.5c0.7-6.2,0.2-12.6,0.7-18.9c-7.5,9-14,20.9-25.8,24.8c-8.6,2.4-18.6-0.6-25.1-6.5
	C166.3,336,171.6,321.1,175.4,309.9"/>
<path class="st0" d="M181.7,360.3c33.1-25.3,41.5-68.6,21-104.7c-14.1-27.5-38.4-51.6-41.9-83.4c-2.6-21.3,18.8-35.8,38.5-30.1
	c11.7,3.1,20,13.2,25.8,23.3c7.5,13.1,12.3,27.8,19.8,41c2.9,5,6.2,9.9,9.6,14.6c3.4,5,6.8,7.9,7.3-0.4c2.3-20.6-13.3-39-9.8-59.5
	c3.9-15.8,25.1-24.6,39.1-16.5c15.5,11.5,14.8,33.5,22.3,49.8c1.9,7.1,9.3,12.7,14.7,5.2c6.2-8.2,17-11.4,26.7-13.1
	c20.3-3.8,30.2,18.1,39.6,32.1c29.3,42.8,15.9,94.7,31.9,141.6c5.1,18.5,19.9,31.7,29.2,47.9c0.5,0.8,0.6,1.8,0.1,2.6
	c-2.7,3.4-3.1,10.9-5.2,14.9C433,469.6,334.3,502,290.2,495.2c-36.2-5.8-73.1-17.9-102.6-40.2C157.9,431.8,149.6,385.3,181.7,360.3"
	/>
<path class="st0" d="M357.9,480.4c-15.2,23.9-51.7,21.7-73.4,8.4c-43.6-29.1,21.5-115.5-32.7-133.5c-9.2-0.1-16.6,6.9-25.6,8
	c-13.9,1.7-28.7-6-34.9-18.6c-3.9-7.6-3.4-16.6-5-24.9c-1.2-8.1-3-16.1-4.6-24.1c-0.7-4.4,0.5-2.6-2.2-5.8
	c-0.2-8.7,1.7-17.9,3.2-26.5c5.4-26.6,15.4-52.2,23.6-78c11.9-35.2,33.1-93.7,80.2-81.3c20,10.1,2.4,35,8.6,51.4
	c0.9,2.8,3.4,4.6,5.6,6.3c1.5,0.6,2.4-1.1,3.4-1.8c5.4-3.9,9.6-9.3,14.3-14c7.7-8,16.4-15.2,25.4-21.7c12.4-9,33.7-11,41.4,4.8
	c5.4,12.7,0,26.8-3.2,39.4c-2.6,10.7-4.9,21.8-7.4,32.5c-5.7,22.5-4.2,46.1-0.8,68.8c1.6,11.1,6.7,21.2,9.8,31.9
	c4,14.6,3.4,30,3.3,45C389.7,397.2,384.6,436.1,357.9,480.4"/>
<path class="st0" d="M386,147.7c12.2-2.2,25.1-4.4,37.2-1.1c17.2,4,30.1,25.5,16.6,40.2c-12.5,14.4-33.4,15.7-47.8,27.4
	c-19.8,14.5-17.6,38.9,9.2,40.7c11.9,1.4,25.8,0,35.5,8.4c15.6,14,9.1,38.9-10.3,45.4c-14.2,6.2-30.6,5.4-44.5,12.2
	c-16.2,6.9-30.7,30-10.5,41.4c14.3,7.7,35.7,3.5,45.1,19.2c6.5,11,5.1,42.2-5.2,50.5c-15.9,11.8-36.9,1.4-54.9,3.5
	c-37.5,4.8-5.3,50.7-92.8,42.7c-31.7-3.7-65.5-7.3-92.4-26.1C98.7,396.9,132.5,288,181.6,228C232.1,170.7,315,161.7,386,147.7"/>
<path class="st0" d="M268.7,476.1c-5.5-7.4-8.4-16.7-8.3-25.9c-0.8-3.1,2.7-11.7-0.8-12.1c-10.9-3.3-22.7-6.1-30.8-14.7
	c-14-14.1-19.8-38.5-9.1-56.1c10.6-14.7,9-6.4-7.6-18.1c-15.8-12-27.1-33.1-22.8-53.2c2.8-12.2,10.5-23.8,21.7-29.7
	c1-0.5,2.1-1.1,3.2-1.5c-2-2-3.8-4.5-5.6-6.8c-8.7-11.6-15.7-25.4-15.5-40.2c0.1-16.5,9.9-33,25.1-39.7c2.9-2.5,19.1-4.5,17.3-6.6
	c-1.7-11,0.5-22.3,3.7-32.8c10.7-37,56.1-52,83.1-22c23.1,26.4-7.8,17.3,29.8,26c24.2,6.2,46.6,28.9,39.6,55.4
	c-1.9,7.6-6.3,14.8-12.6,19.6c-0.5,0.4-1.1,0.8-1.6,1.2c2.1,1.9,4.2,4.2,6,6.4c9.2,10.6,11.5,26.5,5,39c-2.9,5.5-7.9,9.7-13.5,12.3
	c-3.6,0.9,4.6,5.2,5.8,7.3c5,4.9,9.3,10.9,11.4,17.6c5,14.8-1.2,31.6-13.6,40.8c-3.7,1.7,3.2,4.5,4.4,6.7c3.1,3.2,6,7.1,7.9,11.1
	c9,18.9-3,41.2-20.8,49.9c-4.3,2.6-4.3,1.6-1.4,5.6c2.6,4.3,4.1,9.3,5.2,14.2C385.5,487.1,302.6,526.4,268.7,476.1"/>
<path class="st0" d="M358.2,420.3c14.4-62.3,13.5-126.9,6.7-190.1c-5.7-35.8-6.8-74.3-23-107.4c-9-18-33.1-30.7-50.6-16.3
	c-9.2,8.8-16.9,19.9-22.7,31.2c-26.1,57.3-38.2,162.5-30.6,225.2c1.7,15.6,8.4,30.4,12.3,45.2c0.4,8.3,2.8,16.5,5.9,24.1
	c0.9,5.8,1.8,11.8,2.6,17.6c2.6,17,3,39.7,21.4,47.6c13.9,6.3,33.5-0.5,37.1-16.2C342,471.2,353.8,445.3,358.2,420.3"/>
<path class="st0" d="M178.1,401.2c-25.1-19.3-51.9-69.8-17.1-91.8c41.2-19-1.2-43.6-16.3-63.7c-26.4-30.3-23-69.3,23.4-70.8
	c16.9-2.3,51.4,21.1,52.8-9c0.4-11.6-6.6-22.2-5.4-33.8c1-12.5,12.7-20.4,24.2-22.4c24.8-4.7,49.3,6.6,71.2,16.9
	c15,7.5,29.4,17.6,40.9,29.1c28.4,17.9,50.6,45.9,55.7,79.7c10.1,56.8-29.5,75.2-20.5,116.9c4.7,22.2,17.5,42,20.8,64.6
	c4.2,23.3-2.6,51.6-23.9,64.4c-30.3,16.9-62.4-6.7-81.1-30.2c-19.4-25.2-36-42.7-70.3-40.4C214,412.4,193.7,413.1,178.1,401.2"/>
<path class="st0" d="M366,131.3c-1-4.6-3.1-9.3-6.9-12.2c-10.3-17.1-38.8-16.7-56.6-18.9c-64.1-5.4-76.9,47.9-85,99.4
	c-9.6,51.9-19,105.2-13.9,158.1c5.8,43.8,9.1,97,46.2,126.6c39.2,27.7,96.7,16.5,129.6-16.1c16.5-15.7,22.8-39.7,26.9-61.4
	C421.9,314.4,406.9,215.6,366,131.3"/>
</svg>
