<?xml version="1.0" encoding="utf-8"?>
<!-- Generator: Adobe Illustrator 24.0.3, SVG Export Plug-In . SVG Version: 6.00 Build 0)  -->
<svg version="1.1" baseProfile="tiny" id="Layer_1" xmlns="http://www.w3.org/2000/svg" xmlns:xlink="http://www.w3.org/1999/xlink"
	 x="0px" y="0px" viewBox="0 0 800 800" xml:space="preserve">
<path fill="#4564E5" stroke="#FFFFFF" stroke-miterlimit="10" d="M117.6,258.1c2-1.2,3.2-3.2,1.3-5.2c-0.8-0.8-1.7-1.2-2.6-1.9
	c-1.1-0.9-2.1-1.9-3.3-2.8c-1.7-1.4-4.6-2.9-5.8-0.1c-1,2.3-0.1,4.6,1.4,6.5C110.5,257.2,114.9,259.4,117.6,258.1z"/>
<path fill="#11EFB5" stroke="#FFFFFF" stroke-miterlimit="10" d="M358.7,238.1c-4.2,6.3-15.6,0-19.5-1.2c-7.5-2.3-8.7,2.5-14.4,5.4
	c-7.3,3.7-9.5-3.2-15-5.6c-7.5-3.2-9.6,2.5-15.1,6c-6.8,4.4-11.8-1.8-9.8-8.8c1.7-6.2,6.9-11.2,13.2-11.6c5.6-0.4,13,6.2,17.4,4.7
	c5.4-1.8,6.8-9.2,14.1-8.3c3.8,0.4,6.6,4,9.6,5.6c4.1,2.2,4.2,0.6,8.2,0.5C360.8,224.6,362.5,233.4,358.7,238.1z"/>
<path fill="#FFFFFF" d="M110.3,214.1v-15.5c5-0.2,10.1-0.6,15.1-1.1c0-13,0-27.5,0-43.5c6.2,0,12.3-0.1,18.5-0.1v41
	c5-0.8,10.1-1.8,15.1-2.8v14.4C142.8,210.3,126.6,213.3,110.3,214.1z"/>
<path fill="#FFFFFF" d="M177.7,211.9V265H166v-39.3c-6.1,1.5-12.2,3-18.4,4.3v-10.4C157.6,217.3,167.7,214.7,177.7,211.9z"/>
<path fill="#DD3B37" stroke="#FFFFFF" stroke-miterlimit="10" d="M151.2,199.3c-13.6,9.4,21.6,26.3,30.4,23
	c7.4-2.7,17.5-11.9,16.8-24.7C197.5,186.7,158.4,194.3,151.2,199.3z"/>
<path fill="#9121E8" stroke="#FFFFFF" stroke-miterlimit="10" d="M83.2,217.6c0-12.1-25.1,6.3-26.8,13.3c-1.4,5.8-0.1,15.5,8,19
	C71.4,252.7,83.2,224.1,83.2,217.6z"/>
<path fill="#1CEF11" stroke="#FFFFFF" stroke-miterlimit="10" d="M46.5,238.3c3.8,2.6,3-9.4,1.1-11.4c-1.5-1.7-4.8-3.3-7.5-1.5
	C37.9,227,44.5,236.9,46.5,238.3z"/>
<path fill="#FFFFFF" d="M114.4,153.8v15.5c-3.3,0.1-6.6,0.1-9.9,0.2v-15.7H114.4z"/>
<path fill="#FFFFFF" d="M89.5,165.7h1.3c-0.8-3.9-1.6-7.8-2.4-11.9c2.9,0,5.9,0,8.8,0v59.5c-2.9-0.1-5.9-0.3-8.8-0.5v-15.4
	c0.8-3.2,1.6-6.5,2.4-10l-1.3-0.1c-1.8,7.6-4.6,10.9-9.2,10.3c-3.5-0.5-6.3-2.7-8.2-6.5s-2.9-8.9-2.9-16.1c0-7.1,1-12.7,2.9-16.6
	c1.9-3.8,4.7-6,8.2-6.1C84.9,152.4,87.7,157.1,89.5,165.7z M79.6,166.7c-1,2-1.5,5.1-1.5,9.3s0.5,7.2,1.5,9.2
	c0.9,1.7,2.2,2.8,3.7,2.9c1.5,0.1,2.8-0.7,3.7-2.3c1-1.8,1.5-4.8,1.5-9.1S88,169.1,87,167c-0.9-1.9-2.2-2.8-3.7-2.9
	C81.8,164,80.5,164.9,79.6,166.7L79.6,166.7z"/>
<path fill="#FFFFFF" d="M38.6,163.2c0.6-6.3,5.1-10.7,12.5-10.9c5,0,8.8,2.1,11.1,6.8c1.8,3.7,2.8,8.9,2.8,15.3
	c0,6.3-1,10.8-2.9,13.6c-2.5,3.5-6.3,4.2-10.8,2.6c-8.5-3.2-12.8-10.7-12.8-21.2v-3c6,1.5,11.9,2.7,17.9,3.7c-0.2-3.4-0.6-5.5-1.4-7
	c-0.8-1.6-2-2.4-3.7-2.5c-2.2-0.2-3.6,1.3-4.1,4.1C44.5,164.3,41.5,163.8,38.6,163.2z M55.2,182.3c0.8-1,1.1-2.7,1.3-5.1
	c-3.2-0.7-6.3-1.5-9.5-2.3c0.1,5,1.5,7.6,4.5,8.5C53.1,183.8,54.3,183.5,55.2,182.3L55.2,182.3z"/>
<path fill="#FFFFFF" d="M300.2,152.9c1,1.6,2,3.5,3,5.5c5.1,0.3,10.3,0.7,15.4,1.3c1-2.2,2-4.4,3-6.6c6.4,0.1,12.9,0.2,19.3,0.3
	c-5.4,14.1-10.8,24.4-16.2,36.7c-9-3.2-18.2-5.3-27.6-6.5c-5.4-14.1-10.8-24.3-16.2-30.7C287.2,152.8,293.7,152.8,300.2,152.9z
	 M314.7,168.3c-2.6-0.5-5.2-0.9-7.7-1.2c0.8,2,1.6,4.1,2.3,6.3c0.2,1.9,0.5,3.8,0.7,5.8c0.5,0.1,1.1,0.2,1.6,0.3
	c0.2-1.9,0.5-3.8,0.7-5.5C313.1,172,313.9,170.2,314.7,168.3z"/>
<path fill="#FFFFFF" d="M182.4,153.5c2.4,5.5,4.7,10.5,7.1,15.3c22.7-3.1,45.4-6.2,68.1-7.6v-8.4c6.1,0,12.3,0,18.4,0v29.7
	c-32.3,0.5-64.6,10.3-96.9,18.9c-7.3,2-12.8,0.5-15.3-3.7c-1.2-1.8-1.7-4-1.7-6.7c0-2.6,0.5-5.1,1.6-7.5c1.7-3.6,5.4-6.6,10.8-8.4
	v-1.3c-1.8-0.2-3.5-0.3-5.3-0.5c-2.6-6-5.3-12.6-7.9-19.7C168.4,153.6,175.4,153.6,182.4,153.5z M257.6,173.6v-5.3
	c-24.2,2-48.3,7.1-72.5,12c-1.9,0.4-3.2,1.4-3.9,2.8c-0.3,0.5-0.4,1.2-0.4,1.8s0.1,1.1,0.4,1.6c0.7,1.1,2.1,1.5,3.9,1
	C209.3,181.9,233.5,176,257.6,173.6z"/>
<path fill="#FFFFFF" d="M339.2,208.8V265h-9.3v-52.2c-3-1.3-6-2.6-8.9-3.6v-8.9C327.3,202.7,333.3,205.5,339.2,208.8z"/>
<path fill="#FFFFFF" d="M318.3,199.4V265h-18v-12.7c2.9,0.1,5.8,0.3,8.7,0.5v-19.7c-2.7-0.5-5.4-0.9-8.1-1.2v-10.8
	c2.7,0.4,5.4,0.9,8.1,1.5v-17c-2.9-0.7-5.8-1.4-8.7-1.9v-9C306.5,195.8,312.5,197.4,318.3,199.4z"/>
<path fill="#FFFFFF" d="M277,265v-13.3c2,0,4.1,0,6.1,0v-59c3.1,0.2,6.2,0.4,9.3,0.8V252c2,0.1,4,0.1,6,0.2V265H277z"/>
<path fill="#FFFFFF" d="M265.9,192.8V265h-5.4v-71.8C262.3,193.1,264.1,192.9,265.9,192.8z"/>
<path fill="#FFFFFF" d="M240.3,265v-7.4l5.9-0.2V195c1.8-0.3,3.6-0.5,5.4-0.8v63.1l5.9-0.1v7.8L240.3,265L240.3,265z"/>
<path fill="#FFFFFF" d="M196.5,206.6c1.2,5,2.4,10.1,3.5,15.3c4.8-1.2,9.7-2.4,14.5-3.6c1.2-6,2.4-11.9,3.5-17.5
	c4.2-1,8.3-2,12.5-2.9c-4.5,19.7-9,43.2-13.5,67h-19.7c-4.5-20.4-9-37.4-13.5-54.8L196.5,206.6z M212.2,230.5
	c-3.3,0.7-6.6,1.3-9.9,2.1c1.2,5.7,2.5,11.6,3.7,17.8c0.2,2.3,0.3,4.5,0.5,6.8l1.6-0.1c0.1-2.4,0.3-4.7,0.4-7
	C209.8,243.5,211,236.9,212.2,230.5z"/>
<path fill="#FFFFFF" d="M141.1,220.8V265h-11.7v-31.8c-6.1,0.9-12.2,1.5-18.4,1.8v-10.2C121.2,224.1,131.2,222.8,141.1,220.8z"/>
<path fill="#EA6B3F" stroke="#FFFFFF" stroke-miterlimit="10" d="M326.6,164.5c-1.8,2.2-2.4,4.9,0.5,6.5c1.2,0.6,2.4,0.7,3.7,1.1
	c1.7,0.5,3.2,1.3,4.8,1.9c2.5,0.9,6.4,1.5,6.7-2.1c0.3-3-1.7-5.3-4.2-6.9C335,162.8,329.1,162,326.6,164.5z"/>
<path fill="#F4A422" stroke="#FFFFFF" stroke-miterlimit="10" d="M215.9,230.5c-5.3,0.1,3.5,10.9,6.6,11.6c2.6,0.6,6.8-0.1,8.1-3.7
	C231.7,235.3,218.8,230.4,215.9,230.5z"/>
</svg>
