<?xml version="1.0" encoding="utf-8"?>
<!-- Generator: Adobe Illustrator 24.0.3, SVG Export Plug-In . SVG Version: 6.00 Build 0)  -->
<svg version="1.1" baseProfile="tiny" id="Layer_1" xmlns="http://www.w3.org/2000/svg" xmlns:xlink="http://www.w3.org/1999/xlink"
	 x="0px" y="0px" viewBox="0 0 800 800" xml:space="preserve">
<path fill-rule="evenodd" fill="#FFFFFF" d="M501.2,743.9l-3.7,1.8l-3.7,1.2l-3.7,0.5l-3.5-0.1l-3.3-0.8l-3-1.5l-2.7-2.1l-2.2-2.7
	l-1.8-3.2l-1.3-3.7l-0.8-4l-0.5-4.3l-0.1-4.5l0.2-4.7l0.4-4.8l0.6-4.9l0.6-5l0.6-5l0.6-5l0.6-5.1l0.4-5l0.3-5l0.2-5.1l0.1-5.1v-10.1
	l0-5.1v-10.1l0.1-5l0.2-5l0.3-5l0.4-5l0.5-5l0.6-5l0.7-4.9l0.8-5l0.8-5l0.8-5l0.7-4.9l0.6-5l0.5-5l0.4-5l0.3-5l0.1-5l-0.1-5l-0.2-5
	l-1.2-25.1l-0.2-5l-0.2-5l-0.2-5l-0.2-5l-0.3-5l-0.3-5l-0.5-4.9l-0.7-4.9l-0.8-4.9l-0.8-4.8l-1-4.8l-1-4.8l-1-4.8l-1-4.8l-1-4.7
	l-0.8-4.7l-0.6-4.7l-0.3-4.6l-0.1-4.6l0.2-4.6l0.4-4.5l0.6-4.4l0.9-4.4l1.3-4.4l1.5-4.3l1.8-4.3l2-4.2l2.2-4.1l2.4-3.9l2.6-3.8
	l2.7-3.5l2.8-3.2l2.9-2.9l2.8-2.4l2.9-1.9l2.8-1.3l2.7-0.6l2.6,0.1l2.4,0.8l2,1.5l1.7,2.1l1.2,2.7l0.9,3.1l0.5,3.6l0.2,4l-0.2,4.3
	l-0.5,4.4l-0.6,4.4l-0.6,4.4l-0.6,4.4l-0.5,4.4l-0.2,4.3l0.1,4.2l0.5,4.2l0.7,4.2l1.1,4.1l1.3,4.1l1.5,4.1l1.8,4.1l1.9,4l2.1,3.9
	l2.2,3.8l2.2,3.4l2.2,3.1l2.2,2.7l2.3,2.2l2.4,1.7l2.5,1l2.6,0.3l2.7-0.4l2.8-0.6l2.7-1.8l2.7-2.4l2.7-2.9l2.6-3.4l2.4-3.8l2.3-4.1
	l2.1-4.4l1.9-4.5l1.7-4.6l1.4-4.7l1.2-4.8l1-4.8l0.8-4.8l0.7-4.9l0.6-4.9l0.6-4.9l0.7-4.8l0.8-4.6l1-4.5l1.2-4.3l1.5-4l1.9-3.6
	l2.3-3.2l2.6-2.7l3-2.2l3.4-1.7l3.6-1.1l3.8-0.5l3.8,0.1l3.8,0.8l3.8,1.3l3.6,2l3.4,2.5l3.1,2.9l2.7,3.3l2.4,3.7l2.1,4l1.7,4.2
	l1.3,4.5l1,4.7l0.7,4.8l0.4,4.9l0,4.9l-0.3,5l-0.5,5l-0.8,4.9l-1,4.8l-1.2,4.9l-1.4,4.8l-1.5,4.7l-1.7,4.7l-1.9,4.6l-2,4.6l-2.1,4.6
	l-2.2,4.5l-2.2,4.5l-2.1,4.5l-2,4.6l-1.7,4.6l-1.5,4.5l-1.2,4.6l-0.8,4.5l-0.4,4.5l0.1,4.4l0.5,4.2l1.1,4l1.7,3.8l2.1,3.5l2.6,3.2
	l3.1,2.9l3.5,2.5l3.8,2.1l4,1.5l4.4,1.3l4.5,0.8l4.7,0.5l4.8,0.1l4.8-0.2l4.9-0.5l4.8-0.7l4.9-0.9l4.9-1l9.6-2.2l4.8-1l4.8-0.8
	l4.7-0.6l4.7-0.3l4.6,0.1l4.5,0.6l4.4,1l4.1,1.4l4,1.9l3.8,2.3l3.5,2.7l3.3,3.1l3.2,3.4l3,3.7l2.8,4l2.5,4.2l2.2,4.4l2,4.5l1.8,4.6
	l1.5,4.7l1.3,4.7l1,4.7l0.6,4.7l0.3,4.7l-0.1,4.6l-0.5,4.5l-0.9,4.4l-1.4,4.3l-1.8,4.1l-2.3,3.8l-2.7,3.5l-3.1,3.3l-3.4,2.9
	l-3.7,2.5l-4.1,2.1l-4.2,1.8l-4.4,1.3l-4.6,0.9l-4.7,0.5L710,650l-4.8-0.2l-4.9-0.5l-4.8-0.8l-4.9-1.1l-4.8-1.3l-4.8-1.5l-4.8-1.6
	l-4.7-1.7l-4.7-1.7L662,638l-4.8-1.6l-4.8-1.5l-4.8-1.4l-4.8-1.1l-4.8-1l-4.8-0.7l-4.9-0.4l-4.8-0.2l-4.8,0.2l-4.9,0.5l-4.8,0.8
	l-4.7,1.2l-4.7,1.4l-4.6,1.7l-4.5,2l-4.4,2.2l-4.3,2.4l-4.3,2.7l-4.2,2.8l-4,2.9l-4,3.1l-3.8,3.2l-3.7,3.4l-3.6,3.5l-3.4,3.7
	l-3.3,3.8l-3.1,3.9l-3,4l-2.7,4.1l-2.6,4.2l-2.4,4.4l-2.2,4.5l-2.1,4.5l-2.1,4.5l-2,4.6l-2.1,4.5l-2.1,4.5l-2.3,4.4l-2.4,4.3l-2.6,4
	l-2.8,3.7l-3.1,3.3l-3.3,2.9L501.2,743.9"/>
<path fill-rule="evenodd" fill="#FFFFFF" d="M724.7,710.1l-2.2,3.9l-2.7,3.6l-3.1,3.2l-3.5,2.8l-3.8,2.3l-4.1,2l-4.2,1.4l-4.4,0.9
	l-4.5,0.5l-4.5,0.1l-4.5-0.3l-4.5-0.6l-4.4-1l-4.4-1.3l-4.4-1.6l-4.3-1.8l-4.2-2.1l-4.1-2.3l-4-2.4l-4-2.6l-3.8-2.8l-3.8-3l-3.7-3
	l-3.6-3.2l-3.5-3.2L623,696l-3.4-3.5l-3.3-3.5l-3.3-3.5l-3.2-3.6l-3.2-3.6l-3.2-3.6l-3.2-3.5l-3.3-3.4l-3.4-3.3l-3.5-3.1l-3.6-2.9
	l-3.7-2.7l-3.8-2.4l-4-2l-4.1-1.6l-4.2-1.2l-4.2-0.8l-4.3-0.5l-4.3,0.1l-4.3,0.5l-4.2,1l-4,1.4l-3.9,1.8l-3.8,2.2l-3.6,2.5l-3.4,2.9
	l-3.2,3.2l-2.9,3.5l-2.8,3.7L515,674l-2.4,4l-2.3,4.1l-2.2,4.2l-4.3,8.5l-2.2,4.2l-2.3,4.1l-2.4,4l-2.6,3.8l-2.8,3.6l-2.9,3.3
	l-3.2,3.1l-3.4,2.7l-3.7,2.3l-3.8,1.9l-3.9,1.5l-4.1,1l-4.1,0.5l-4.1,0l-4-0.5l-3.9-1.1l-3.6-1.6l-3.4-2l-3.1-2.5l-2.7-2.9l-2.4-3.3
	l-2-3.6l-1.6-3.8l-1.1-4.1l-0.7-4.2l-0.3-4.3l0.2-4.4l0.6-4.4l0.8-4.4l1.2-4.5l1.5-4.4l1.8-4.3l2-4.3l2.3-4.1l2.4-4l2.6-4l2.8-3.8
	l2.9-3.8l3-3.7l3.1-3.7l3.2-3.6l3.3-3.5l3.4-3.4l3.5-3.4l3.5-3.3l3.6-3.2l3.7-3.2l3.7-3l3.7-3l3.8-2.9l3.9-2.9l3.9-2.8l4-2.8l4-2.7
	l4-2.6l4-2.6l4.1-2.5l8.2-5.1l4-2.6l4-2.6l4-2.7l4-2.7l3.9-2.8l3.9-2.9l3.8-2.9l3.7-3l3.7-3l3.5-3.2l3.5-3.2l3.3-3.4l3.1-3.5
	l2.9-3.6l2.7-3.8l2.4-3.9l2.2-4l1.9-4.1l1.6-4.2l1.2-4.3l1-4.4l0.8-4.5l0.5-4.6l0.4-4.6l0.2-4.7l0.2-4.8l0.1-4.7l0-4.8l0.1-4.9
	l0.1-4.9l0.2-4.8l0.2-4.8l0.2-4.8l0.3-4.8l0.3-4.8l0.4-4.7l0.5-4.7l0.6-4.6l0.8-4.5l1-4.4l1.3-4.1l1.6-3.9l1.9-3.5l2.2-3.2l2.5-2.7
	l2.9-2.3l3.2-1.8l3.4-1.2l3.6-0.6l3.8-0.1l3.9,0.3l4,0.8l4.1,1.3l4.1,1.5l4.1,1.6l4.1,1.8l4.1,1.8l4.1,1.8l4.2,1.7l4.2,1.5l4.3,1.3
	l4.3,1.1l4.2,0.9l4.2,0.8l4.2,0.7l4,0.8l3.7,0.9l3.4,1l3,1.2l2.6,1.4l1.9,1.6l1.3,1.8l0.6,1.9l-0.1,2l-0.9,2l-1.5,1.9l-2.2,1.6
	l-2.8,1.5l-3.1,1.3l-3.5,1.2l-3.7,1.1l-3.8,1.1l-3.7,1.1l-3.4,1.2l-3.1,1.4l-2.6,1.6l-2.1,1.8l-1.4,2.1l-0.8,2.3l-0.1,2.5l0.6,2.6
	l1.2,2.7l1.7,2.8l2.1,2.8l2.3,2.9l2.4,2.9l2.3,2.8l2.1,2.8l1.7,2.8l1.3,2.7l0.7,2.8l0.1,2.8l-0.5,2.9l-1.1,2.9l-1.5,2.8l-1.8,2.9
	l-2,2.9l-2,2.9l-1.8,2.9l-1.5,2.8l-1.1,2.8l-0.6,2.7l0.1,2.7l0.8,2.6l1.4,2.5l2.1,2.4l2.6,2.3l3,2.2l3.4,2.1l3.6,2.1l3.7,2.1
	l3.7,2.3l3.5,2.3l3.2,2.4l2.7,2.6l2.3,2.9l1.7,3l1,3.1l0.4,3.2l-0.2,3.2l-0.9,3.1l-1.5,3l-2.1,2.8l-2.7,2.6l-3.1,2.3l-3.5,2.1
	l-3.8,1.9l-4,1.8l-4.2,1.6l-4.2,1.6l-4.2,1.6l-4,1.8l-3.8,1.9l-3.5,2.2l-3.3,2.4l-2.8,2.7l-2.3,3l-1.8,3.3l-1.3,3.6l-0.8,3.6
	l-0.2,3.8l0.4,3.9l0.9,3.9l1.5,3.8l1.9,3.7l2.4,3.5l2.8,3.3l3.1,3.1l3.4,2.9l3.7,2.7l3.9,2.4l4,2.3l4.2,2.2l4.3,2.2l4.3,2.2l4.2,2.2
	l4.1,2.3l3.9,2.4l3.8,2.6l3.5,2.9l3.2,3.1l2.8,3.4l2.4,3.6l1.9,3.9l1.4,4l0.9,4.2l0.2,4.2l-0.4,4.3l-1,4.3L724.7,710.1"/>
<path fill-rule="evenodd" fill="#FFFFFF" d="M712.5,717l-3.3,3.4l-3.7,3.1l-4,2.7l-4.3,2.3l-4.4,1.9l-4.7,1.5l-4.8,1.1l-4.9,0.8
	l-4.9,0.4l-4.9,0.2l-5-0.1l-5-0.4l-4.9-0.6l-5-0.8l-5-0.9l-4.9-1l-4.9-1.2l-4.8-1.3l-4.9-1.4l-4.9-1.5l-4.8-1.6l-9.6-3.4l-4.7-1.8
	l-4.7-1.8l-9.5-3.6l-4.7-1.8l-4.7-1.8l-9.6-3.4l-4.8-1.5l-4.9-1.4l-4.8-1.2l-4.8-1.1l-4.9-0.9l-4.8-0.6l-4.8-0.3l-4.8,0l-4.7,0.3
	l-4.6,0.8l-4.5,1.1l-4.4,1.5l-4.3,1.8l-4.1,2.3l-4,2.5l-3.9,2.8l-3.8,3l-3.7,3.1l-3.7,3.1l-3.6,3l-3.6,2.8l-3.6,2.5l-3.5,2.1
	l-3.4,1.5l-3.3,1l-3.1,0.4l-2.8-0.3l-2.5-1l-2.1-1.7l-1.7-2.3l-1.2-2.8l-0.7-3.3l-0.2-3.7l0.3-4l0.8-4.2l1.1-4.4l1.5-4.5l1.7-4.5
	l1.9-4.6l2-4.7l2.1-4.6l2.1-4.6l2.1-4.7l2-4.7l2-4.7l1.9-4.7l1.8-4.7l1.7-4.8l1.6-4.8l1.5-4.9l1.4-4.9l1.4-4.9l1.3-4.8l1.3-4.9
	l1.3-4.9l1.3-4.8l1.4-4.9l1.4-4.9l1.5-4.9l1.5-4.9l6.4-19.2l1.5-4.8l1.4-4.9l1.4-4.9l1.3-4.9l1.1-4.9l1-4.9l0.9-5l0.9-5l0.8-5
	l0.8-5.1l0.8-5.1l0.8-5l0.9-5l1-4.9l1.1-4.8l1.4-4.7l1.5-4.6l1.7-4.4l2-4.3l2.2-4.1l2.5-4.1l2.6-3.9l2.8-3.8l2.8-3.8l2.8-3.8
	l2.8-3.7l2.6-3.8l2.5-3.9l2.3-3.9l2.1-3.9l2-3.8l1.8-3.7l1.8-3.5l1.7-3.2l1.8-2.8l1.9-2.3l2.1-1.7l2.3-1.1l2.5-0.4l2.7,0.1l2.8,0.6
	l2.9,0.9l3,1.1l3.1,1.1l3.2,1l3.2,0.7l3.2,0.2l3.2-0.3l3.2-0.9l3.1-1.4l3.2-2l3.2-2.4l3.1-2.8l3.3-3l3.4-3.2l3.5-3.2l3.6-3l3.7-2.8
	l3.8-2.4l4-2.1l4-1.6l4.2-1.1l4.2-0.5l4.1,0l4,0.6l3.9,1.2l3.6,1.7l3.2,2.2l2.8,2.6l2.3,2.9l1.7,3.2l1.1,3.4l0.4,3.5l-0.2,3.7
	l-0.8,3.8l-1.4,3.8l-1.8,3.7l-2.3,3.7l-2.6,3.7l-2.9,3.7l-3,3.7l-3.1,3.7l-3.2,3.6l-3.3,3.6l-6.8,7.1l-3.5,3.5l-3.6,3.4l-3.6,3.3
	l-3.7,3.2l-3.8,3.1l-3.8,3.1l-3.9,3.1l-3.8,3.1l-3.8,3.1L603,491l-3.4,3.4l-3.2,3.4l-2.9,3.7l-2.5,3.8l-2.1,3.9l-1.5,4l-1,4l-0.4,4
	l0.1,3.8l0.7,3.7l1.3,3.4l1.9,3.1l2.4,2.7l2.9,2.2l3.3,1.8l3.7,1.2l4,0.7l4.2,0.2l4.4-0.3l4.4-0.7l4.5-1.2l4.5-1.6l4.5-1.8l4.4-2.1
	l4.4-2.3l4.4-2.4l4.4-2.5l4.4-2.5l4.4-2.4l4.4-2.3l4.4-2.1l4.5-1.8l4.5-1.5l4.5-1.1l4.5-0.7l4.5-0.3l4.4,0.3l4.2,0.8l4,1.2l3.8,1.7
	l3.4,2.2l3,2.7l2.6,3l2.1,3.3l1.6,3.7l0.9,3.8l0.3,4l-0.2,4.2l-0.8,4.1l-1.3,4.1l-1.8,4l-2.3,3.9l-2.7,3.7l-3.1,3.5l-3.4,3.3l-3.7,3
	l-3.9,2.8l-4.1,2.5l-4.3,2.4l-4.4,2.1l-4.5,2l-4.5,1.8l-9.3,3.7l-4.5,1.9l-4.4,2l-4.3,2.2l-4.1,2.3l-3.8,2.6l-3.5,2.8l-3,3l-2.6,3.3
	l-2.1,3.5l-1.5,3.7l-0.9,3.8l-0.3,3.8l0.4,3.8l1,3.6l1.6,3.5l2.2,3.3l2.8,3l3.2,2.6l3.6,2.3l4,2l4.2,1.6l4.5,1.3l4.6,1.1l4.8,0.8
	l4.9,0.7l4.9,0.6l4.9,0.7l4.8,0.8l4.6,0.9l4.5,1.2l4.3,1.5l4,1.9l3.8,2.2l3.4,2.6l3,2.9l2.5,3.4l2,3.7l1.5,3.9l1,4.1l0.3,4.3
	l-0.2,4.3l-0.8,4.3l-1.4,4.3l-1.9,4.2l-2.4,4L712.5,717"/>
<path fill-rule="evenodd" fill="#FFFFFF" d="M500.8,445.3l-2.2,3.9l-1.7,3.9l-1.1,3.9l-0.5,3.8l0.2,3.8l0.7,3.7l1.3,3.5l1.9,3.3
	l2.5,3l2.9,2.7l3.3,2.3l3.6,2l3.7,1.6l4,1.2l4.1,0.8l4.1,0.3l4.2,0l4.2-0.5l4.1-0.9l4-1.4l3.9-1.7l3.7-2.1l3.6-2.4l3.4-2.7l3.3-3
	l3.2-3.2l3-3.4l2.9-3.5l2.8-3.6l2.7-3.8l2.7-3.8l2.6-3.8l2.6-3.8l5.2-7.7l2.7-3.8l2.7-3.8l2.8-3.6l2.9-3.5l3.1-3.3l3.1-3.1l3.3-2.9
	l3.5-2.6l3.6-2.2l3.7-1.8l3.8-1.4l3.9-0.9l3.9-0.5l3.9,0.1l3.8,0.5l3.7,1.1l3.5,1.5l3.2,2l2.9,2.5l2.5,2.9l2.2,3.2l1.8,3.6l1.4,3.8
	l1,3.9l0.6,4.1l0.1,4.2l-0.3,4.2l-0.6,4.3l-1,4.2l-1.3,4.2l-1.6,4.2l-1.8,4.1l-2.1,4l-2.2,4l-2.4,4l-2.4,3.9l-2.5,3.9l-2.6,3.8
	l-2.6,3.8l-2.5,3.9l-2.5,3.9l-2.4,3.9l-2.4,4l-2.2,4.1l-2.1,4.1l-1.9,4.1l-1.9,4.2l-1.7,4.3l-1.6,4.4l-1.4,4.4l-1.3,4.4l-1.1,4.4
	l-0.9,4.5l-0.8,4.5l-0.6,4.6l-0.4,4.6l-0.2,4.6l0,4.5l0.2,4.6l0.4,4.6l0.6,4.5l0.8,4.5l1,4.4l1.1,4.4l1.3,4.4l1.4,4.4l1.5,4.4
	l1.6,4.3l1.6,4.3l1.8,4.3l1.8,4.3l1.9,4.3l1.9,4.3l1.9,4.2l4.1,8.4l2.1,4.1l2.2,4.2l2.2,4.1l2.2,4.1l2.3,4l2.3,4l2.3,4l2.1,4l2,4.1
	l1.9,4.1l1.7,4.2l1.4,4.1l1.1,4.1l0.7,4.1l0.3,4l-0.2,3.9l-0.7,3.7l-1.2,3.5l-1.6,3.2l-2.1,2.9l-2.6,2.5l-2.9,2.1l-3.3,1.7l-3.6,1.2
	l-3.8,0.8l-4,0.3l-4.1-0.1l-4.2-0.6l-4.1-1l-4.2-1.3l-4.2-1.6l-4.1-1.9l-4-2.2l-3.9-2.3l-3.8-2.5l-3.7-2.7l-3.6-2.8l-3.5-3l-3.4-3.1
	l-3.4-3.2l-3.2-3.3l-3.2-3.4l-3.1-3.4l-3.1-3.5l-3-3.6l-3-3.5l-2.9-3.6l-2.9-3.6l-8.6-11.1l-2.9-3.6l-2.9-3.6l-2.9-3.6l-3-3.5
	l-3-3.6l-6.1-7l-3.1-3.5l-3.1-3.5l-3.1-3.4l-3.1-3.5l-3.1-3.5l-3.1-3.5l-3.1-3.5l-3-3.6l-3-3.5l-5.8-7.2l-2.9-3.6l-3-3.5l-2.9-3.5
	l-3-3.5l-3.1-3.5l-3.1-3.4l-3.1-3.4l-3.2-3.4l-3.2-3.4l-3.2-3.4l-3.1-3.4l-3-3.5l-2.9-3.5l-2.8-3.6l-2.6-3.7l-2.5-3.8l-2.3-3.9
	l-2.2-4l-2.1-4.1l-2-4.1l-1.9-4.2l-1.8-4.2l-5.3-12.9l-1.8-4.2l-1.9-4.2l-1.9-4.2l-2-4.1l-2.1-4.1l-2.1-4.1l-2.1-4l-2.1-4l-1.9-4
	l-1.8-3.9l-1.7-3.8l-1.3-3.7l-1-3.6l-0.8-3.3l-0.4-3l-0.1-2.7l0.3-2.2l0.7-1.9l1-1.5l1.3-1l1.5-0.5l1.7,0l1.8,0.3l1.9,0.6l2.2,0.7
	l2.3,0.6l2.4,0.6l2.6,0.6l2.6,0.6l2.7,0.5l2.8,0.3l2.9,0.1l3-0.4l2.9-0.7l2.9-1.1l2.7-1.3l2.5-1.5l2.2-1.8l1.8-2l1.4-2.4l0.9-2.7
	l0.4-3l-0.1-3.2l-0.5-3.2l-0.9-3.4l-1.1-3.4l-1.3-3.4l-1.4-3.5l-1.3-3.5l-1.1-3.5l-0.7-3.3l-0.2-3.2l0.3-3.1l0.9-3l1.4-2.8l2-2.6
	l2.5-2.4l3-2.2l3.3-2l3.7-1.9l4-1.7l4.1-1.6l4.3-1.4l4.3-1.3l4.3-1.1l4.4-1l4.4-0.8l4.4-0.5l4.3-0.3l4.2,0.1l4,0.4l3.8,0.8l3.7,1.3
	l3.4,1.7l3,2.2l2.7,2.5l2.2,2.9l1.8,3.2l1.3,3.5l0.8,3.6l0.2,3.8l-0.3,3.7l-0.8,3.7l-1.3,3.7l-1.8,3.7l-2.2,3.6l-2.7,3.5l-2.9,3.4
	l-3.2,3.4l-3.3,3.4l-3.4,3.4l-3.4,3.5l-3.2,3.6l-3,3.7L500.8,445.3"/>
<path fill-rule="evenodd" fill="#FFFFFF" d="M702.9,583.4l-4.3,3.6l-4.6,3.2l-4.8,2.8l-4.9,2.5l-5.1,2.1l-5.2,1.9l-5.2,1.7l-5.2,1.5
	l-5.1,1.4l-5.2,1.4l-5.1,1.3l-4.9,1.4l-4.9,1.6l-4.8,1.8l-4.6,2.1l-4.5,2.3l-4.2,2.6l-3.9,2.9l-3.6,3.1l-3.2,3.5l-2.8,3.7l-2.3,3.9
	l-1.8,4.1l-1.2,4.2l-0.6,4.2l0,4.3l0.6,4.3l1.2,4.2l1.8,4.1l2.3,3.9l2.8,3.7l3.2,3.5l3.6,3.3l3.9,3l4.1,2.7l4.4,2.4l4.5,2.1l4.8,1.9
	l4.8,1.6l5,1.4l5.1,1.2l5.1,1l5.2,0.9l5.2,0.8l5.2,0.8l5.2,0.8l5.1,0.9l5,1l4.9,1.1l4.8,1.4l4.6,1.7l4.3,1.9l3.9,2.3l3.4,2.6l3,2.9
	l2.5,3.2l1.8,3.4l1.2,3.5l0.4,3.6l-0.3,3.6l-1,3.5l-1.7,3.4l-2.4,3.1l-2.9,2.8l-3.5,2.5l-3.9,2.2l-4.3,1.9l-4.5,1.5l-4.8,1.3
	l-4.9,1.1l-5,0.9l-5.2,0.8l-4.9,0.5l-5.2,0.7l-5.2,0.6l-5.2,0.6l-5.2,0.6l-5.3,0.7l-5.3,0.7l-5.3,0.7l-5.3,0.7l-5.3,0.7l-5.3,0.7
	l-10.6,1.4l-5.3,0.6l-5.2,0.6l-5.2,0.6l-5.2,0.5l-5.2,0.5l-5.2,0.4l-5.3,0.3l-5.3,0.2l-5.3,0.1h-5.2l-5.2-0.1l-5.3-0.3l-5.2-0.4
	l-5.1-0.6l-5.2-0.8l-5.1-1l-5.1-1.2l-5-1.4l-4.9-1.7l-4.8-1.9l-4.6-2.2l-4.5-2.4l-4.3-2.6l-4.2-2.9l-4-3.2l-3.8-3.4l-3.6-3.5
	l-3.4-3.8l-3.2-4l-2.9-4.2l-2.8-4.3l-2.5-4.4l-2.3-4.6l-2.2-4.7l-2-4.8l-1.8-4.9l-1.6-5l-1.4-5l-1.3-5.1l-1.1-5.1l-1-5.1l-0.8-5.2
	l-0.7-5.2l-0.5-5.2l-0.4-5.2l-0.2-5.2v-5.2l0.2-5.2l0.4-5.2l0.6-5.1l0.8-5.1l0.9-5l0.9-5l0.9-4.9l0.9-4.7l0.7-4.6l0.6-4.3l0.3-4.2
	l-0.2-4l-0.5-3.7l-1.1-3.5l-1.5-3.4l-1.9-3.3l-2.2-3.2l-2.4-3.1l-2.4-3.1l-2.4-3.2l-2.2-3.2l-1.8-3.2l-1.4-3.1l-0.9-3l-0.2-2.8
	l0.4-2.6l1.1-2.4l1.8-2l2.3-1.7l2.8-1.4l3-1.1l3.3-0.9l3.3-0.8l3.3-0.9l3.1-1.1l2.9-1.3l2.5-1.8l2-2.1l1.4-2.5l0.8-2.9l0.3-3.3
	l-0.3-3.7l-0.8-4l-1.2-4.2l-1.5-4.3l-1.7-4.5l-1.9-4.6l-1.9-4.6l-1.8-4.6l-1.7-4.6l-1.4-4.6l-1-4.6l-0.5-4.6l0-4.5l0.5-4.4l1.1-4.3
	l1.5-4.1l2-3.8l2.5-3.5l3-3.1l3.3-2.7l3.6-2.2l3.8-1.5l4-1l4.2-0.3l4.2,0.3l4.1,0.9l4,1.5l3.9,2l3.8,2.5l3.6,3l3.4,3.4l3.2,3.7
	l2.8,4.1l2.6,4.3l2.3,4.5l2.1,4.6l1.9,4.8l1.7,4.9l1.5,4.9l1.4,5l1.3,5.1l1.2,5.1l1.1,5.1l1,5.1l1,5.1l1,5.1l1,5.1l1.1,5.1l1.2,5.1
	l1.3,5l1.5,4.7l1.8,4.6l2,4.2l2.3,4l2.6,3.5l2.9,3.1l3.2,2.6l3.5,2l3.8,1.4l4,0.8l4.1,0.2l4.1-0.5l4.1-1.1l4-1.6l3.8-2.2l3.6-2.7
	l3.4-3.1l3-3.5l2.6-3.8l2.3-4.2l1.8-4.4l1.5-4.6l1.2-4.8l0.9-4.9l0.7-5.1l0.5-5.1l0.5-5.1l0.5-5.1l0.5-5.1l0.7-5l0.9-4.9l1.2-4.7
	l1.5-4.5l1.9-4.2l2.3-4l2.7-3.6l3.1-3.2l3.5-2.8l3.8-2.4l4.1-1.9l4.4-1.4l4.5-1l4.7-0.5l4.7,0l4.8,0.4l4.8,0.9l4.7,1.3l4.5,1.7
	l4.4,2.1l4.3,2.4l4.1,2.8l3.9,3.1l3.7,3.4l3.5,3.7l3.4,3.9l3.1,4l3,4.3l2.8,4.4l2.6,4.5l2.3,4.6l2.2,4.7l1.9,4.8l1.7,4.8l1.4,4.9
	l1.1,5l0.8,5l0.5,5l0,5.1l-0.4,5.1l-0.9,5.1l-1.3,5.1l-1.8,5l-2.2,4.8l-2.8,4.7l-3.2,4.4l-3.6,4.2L702.9,583.4"/>
<path fill-rule="evenodd" fill="#FFFFFF" d="M642.2,599.2l0.7,3.7l0.4,3.6l0,3.7l-0.4,3.7l-0.9,3.6l-1.3,3.6l-1.7,3.6l-2,3.5
	l-2.3,3.4l-2.5,3.4l-2.7,3.2l-2.9,3.1l-3,3l-3.1,2.8l-3.1,2.8l-3.1,2.7l-3.1,2.5l-3.1,2.4l-3,2.3l-3.1,2.1l-3,1.8l-2.8,1.7l-2.8,1.5
	l-2.7,1.2l-2.7,1.1l-2.7,0.8l-2.8,0.7l-2.7,0.5l-2.6,0.4l-2.5,0.4l-2.4,0.5l-2.3,0.6l-2.2,0.9l-2,1.3l-1.8,1.7l-1.6,2l-1.4,2.4
	l-1.3,2.7l-1.2,2.9l-1.1,3.1l-1.2,3.3l-1.3,3.3l-1.5,3.2l-1.8,3.1l-2.1,2.8l-2.3,2.5l-2.7,2.2l-3.1,1.9l-3.3,1.6l-3.6,1.3l-3.9,1.1
	l-4.1,0.9l-4.2,0.6l-4.3,0.5l-4.4,0.3l-4.4,0.3l-4.4,0.2l-4.4,0.2l-4.4,0.1l-4.4,0.1l-8.8,0.3l-4.4,0.1l-4.4,0.1l-4.4,0l-4.3-0.1
	l-4.3-0.3l-4.3-0.4l-4.2-0.6l-4.1-0.8l-4-1.1l-3.9-1.3l-3.7-1.7l-3.6-1.9l-3.4-2.3l-3-2.5l-2.7-2.8l-2.4-3l-2-3.3l-1.6-3.4l-1.2-3.5
	l-0.8-3.7l-0.3-3.7l0.2-3.6l0.7-3.5l1.1-3.3l1.6-3.1l2.1-2.9l2.4-2.6l2.7-2.6l3.1-1.9l3.4-1.5l3.7-1.2l3.9-0.9l4-0.6l4.1-0.3l4.2,0
	l4.2,0.1l4.3,0.3l8.5,0.6l4.2,0.2l4.2,0l4-0.2l3.9-0.4l3.8-0.7l3.6-1.2l3.4-1.5l3.2-1.9l2.9-2.3l2.8-2.6l2.6-3l2.3-3.3l2.1-3.5
	l1.9-3.7l1.7-3.9l1.6-4l1.4-4.1l1.3-4.2l1.2-4.3l1.1-4.2l1-4.3l1-4.3l0.9-4.3l0.9-4.3l0.9-4.3l0.9-4.3l0.8-4.3l0.7-4.4l0.6-4.4
	l0.5-4.4l0.4-4.3l0.2-4.2l0-4.1l-0.2-4.1l-0.5-4.1l-0.8-3.9l-1.2-3.8l-1.5-3.6l-1.9-3.3l-2.2-3l-2.6-2.7l-2.9-2.3l-3.2-2l-3.4-1.5
	l-3.6-1.2l-3.8-0.7l-3.9-0.4l-4.1,0l-4.1,0.3l-4.2,0.5l-4.2,0.8l-4.1,0.9l-4.2,1l-4.2,1.1l-4.2,1l-4.1,1l-4.2,0.8l-4.1,0.6l-4.1,0.4
	l-4,0l-3.9-0.3l-3.8-0.7l-3.7-1.1l-3.5-1.5l-3.2-2l-2.9-2.3l-2.6-2.7l-2.3-3l-1.9-3.2l-1.5-3.5l-1.1-3.6l-0.6-3.8l-0.2-3.9l0.2-3.9
	l0.7-3.9l1.1-3.8l1.4-3.7l1.8-3.6l2.2-3.4l2.4-3.2l2.8-3l3-2.8l3.3-2.4l3.5-2.2l3.6-2l3.8-1.8l3.9-1.5l4-1.3l4.1-1.1l4.2-0.9
	l4.2-0.7l4.3-0.6l4.4-0.5l4.4-0.3l4.4-0.2l4.4-0.1l4.4,0l4.4,0.1l8.8,0.4l4.4,0.3l4.4,0.3l4.4,0.3l4.4,0.3l4.4,0.2l4.4,0.1l4.3,0
	l4.3-0.1l4.3-0.3l4.3-0.5l4.2-0.8l4.1-1l4-1.3l3.9-1.5l3.8-1.8l3.6-2.1l3.5-2.3l3.4-2.5l3.2-2.7l3.1-2.9l3-3.1l2.9-3.2l2.9-3.3
	l2.8-3.4l5.5-6.8l2.8-3.4l2.9-3.3l3-2.8l3-3.1l3.1-2.9l3.3-2.6l3.4-2.4l3.5-2.1l3.6-1.6l3.7-1.3l3.8-0.9l3.9-0.5l3.8,0l3.9,0.4
	l3.8,0.8l3.7,1.2l3.6,1.7l3.3,2l3.2,2.4l2.9,2.7l2.7,3l2.4,3.3l2.1,3.5l1.7,3.7l1.4,3.9l1.1,4l0.7,4l0.4,4.1l0,4.1l-0.3,4.2
	l-0.5,4.2l-0.8,4.1l-1.1,4.1l-1.3,4.1l-1.6,4l-1.7,4l-1.9,3.9l-2.1,3.8l-2.2,3.8l-2.2,3.8l-2.3,3.7l-4.8,7.4l-2.4,3.7l-4.8,7.4
	l-2.4,3.7l-2.3,3.8l-2.2,3.8l-2.2,3.8l-2.1,3.8l-2.1,3.9l-2,3.9l-1.8,4l-1.7,4.1l-1.6,4l-1.4,4.1l-1.2,4.2l-1,4.2l-0.8,4.1l-0.5,4.1
	l-0.2,4.1l0.1,4.1l0.4,3.9l0.8,3.9l1,3.8l1.3,3.8l1.5,3.7l1.7,3.7l1.6,3.6l1.6,3.6l1.6,3.6l1.3,3.5L642.2,599.2"/>
<path fill-rule="evenodd" fill="#FFFFFF" d="M685.2,618.6l-2.2,5.3l-2.2,5.2l-2.3,5.2l-2.3,5.1l-2.4,5l-2.3,4.9l-2.3,4.8l-2.2,4.6
	l-2,4.6l-1.8,4.5l-1.4,4.4l-1.1,4.3l-0.7,4.3l-0.2,4.2l0.3,4.2l0.8,4.1l1.2,4l1.5,3.9l1.7,3.9l1.8,3.9l1.7,3.8l1.6,3.8l1.3,3.9
	l0.8,4l0.4,4l-0.1,4l-0.7,4l-1.3,3.9l-1.8,3.8l-2.4,3.7l-2.8,3.6l-3.2,3.4l-3.5,3.1l-3.9,2.9l-4.1,2.7l-4.3,2.4l-4.4,2l-4.6,1.8
	l-4.7,1.4l-4.8,1.1l-4.9,0.8l-4.9,0.5l-4.9,0.2l-4.9-0.1l-5-0.3l-4.9-0.4L592,772l-4.7-0.9l-4.5-1l-4.4-1.2l-4.2-1.4l-4-1.5
	l-3.8-1.5l-3.7-1.5l-3.5-1.5l-3.4-1.4l-3.2-1.4l-3.2-1.2l-3.1-1l-3.3-0.6l-3.4-0.2l-3.5,0.2l-3.6,0.6l-3.7,0.9l-3.8,1.1l-4,1.2
	l-4.1,1.3l-4.2,1.3l-4.2,1.1l-4.2,0.9l-3.9,0.5l-3.6,0.1l-3.2-0.5l-2.8-0.9l-2.3-1.4l-1.7-1.9l-1.2-2.4l-0.6-2.7l0-3.1l0.7-3.2
	l1.2-3.3l1.7-3.4l2.1-3.4l2.4-3.3l2.7-3.2l3.1-2.9l3.3-2.7l3.7-2.5l3.8-2.2l3.9-2l4.1-1.9l8.4-3.6l4.1-1.9l4-1.9l3.8-2.2l3.5-2.3
	l3.1-2.7l2.6-2.9l2.1-3.1l1.4-3.2l0.7-3.5l0.1-3.6l-0.6-3.4l-1.2-3.4l-1.9-3.2l-2.4-2.9l-3-2.7l-3.4-2.4l-3.8-2.1l-3.9-2l-4.1-1.9
	l-4.1-1.9l-4-2l-3.8-2.1l-3.6-2.4l-3.3-2.6l-2.9-3l-2.7-3.2l-2.3-3.5l-2.2-3.7l-2-3.9l-2-3.8l-2.1-3.8l-2.2-3.6l-2.4-3.5l-2.7-3.1
	l-3-2.9l-3.3-2.5l-3.7-2.2l-3.9-1.9l-4.2-1.7l-4.3-1.5l-4.4-1.5l-4.4-1.6l-4.4-1.7l-4.2-2l-4.1-2.3l-3.8-2.5l-3.6-2.9l-3.3-3.2
	l-2.9-3.6l-2.6-3.8l-2.3-4.1l-1.9-4.4l-1.5-4.5l-1.2-4.7l-0.9-4.8l-0.6-4.9l-0.2-5l0.2-5.2l0.2-5.1l0.4-5l0.6-5l0.8-5l0.9-5l1-5
	l1.2-5l2.6-9.9l1.4-4.9l1.5-4.8l1.6-4.8l1.8-4.8l2-4.6l2.1-4.5l2.3-4.4l2.5-4.2l2.8-4l3-3.7l3.3-3.4l3.6-3l3.8-2.7l4-2.3l4.2-1.9
	l4.4-1.4l4.4-0.9l4.5-0.5l4.6-0.1l4.6,0.4l4.5,0.9l4.4,1.3l4.3,1.7l4.1,2.2l3.8,2.6l3.6,3l3.4,3.3l3.1,3.7l2.8,3.9l2.6,4.1l2.3,4.3
	l2,4.5l1.8,4.7l1.6,4.7l1.4,4.8l1.3,4.9l1.2,5l2.3,10l1.2,5l1.3,4.9l1.4,4.8l1.5,4.8l1.7,4.7l1.9,4.6l2.1,4.4l2.4,4.3l2.6,4l2.9,3.8
	l3.2,3.5l3.5,3.2l3.7,2.8l3.9,2.5l4.1,2.1l4.2,1.7l4.3,1.1l4.4,0.6l4.5,0.1l4.5-0.4l4.7-0.8l4.3-1.4l4.1-1.9l3.9-2.3l3.6-2.8
	l3.4-3.1l3.1-3.4l2.8-3.8l2.6-4l2.3-4.3l2-4.4l1.9-4.6l1.7-4.7l1.5-4.8l1.4-4.9l1.3-5l2.5-9.9l1.3-5l1.4-4.9l1.5-4.8l1.6-4.8
	l1.8-4.7l2-4.6l2.2-4.4l2.4-4.3l2.7-4.1l2.9-3.9l3.1-3.6l3.4-3.4l3.6-3.1l3.8-2.8l4.1-2.4l4.2-2l4.3-1.6l4.5-1.1l4.5-0.7l4.5-0.2
	l4.5,0.3l4.4,0.8l4.2,1.4l4,1.8l3.7,2.4l3.5,2.7l3.1,3.2l2.7,3.5l2.3,3.8l1.9,4.1l1.4,4.4l1,4.5l0.6,4.6l0.2,4.7l-0.3,4.8l-0.6,4.8
	l-1,4.8l-1.3,4.8l-1.5,4.8l-1.7,4.7l-1.9,4.7l-2,4.7l-2.1,4.6l-2.2,4.6l-2.3,4.6l-2.3,4.6l-2.3,4.6l-2.3,4.6l-4.5,9.3l-2.2,4.6
	l-2.2,4.6l-2.2,4.7l-2.1,4.8l-2.1,4.9l-2.1,5l-2.1,5l-2.1,5.1l-2.1,5.2l-4.3,10.6l-2.1,5.4L685.2,618.6"/>
<path fill-rule="evenodd" fill="#FFFFFF" d="M690.3,526.4l-1-1.9l-1.2-2.2l-1.4-2.3l-1.7-2.3l-2-2.2l-2.3-2l-2.5-1.7l-2.7-1.2
	l-2.9-0.6l-3-0.1l-3,0.5l-3,1l-2.9,1.5l-2.8,1.9l-2.5,2.4l-2.2,2.8l-2,3.1l-1.6,3.5l-1.3,3.6l-1,3.8l-0.8,3.9l-0.5,4l-0.3,4l0,4
	l0.4,4l0.7,3.9l1.1,3.7l1.5,3.4l1.8,3.1l2.2,2.8l2.6,2.6l2.9,2.2l3.3,1.9l3.6,1.6l3.8,1.4l4,1.2l8.1,2.3l4,1.3l3.8,1.4l3.6,1.6
	l3.4,1.9l3,2.2l2.6,2.6l2.2,2.8l1.7,3.1l1.2,3.3l0.7,3.5l0.1,3.5L707,615l-1,3.5l-1.5,3.4l-2,3.2l-2.4,2.9l-2.9,2.5l-3.2,2.2
	l-3.5,1.8l-3.8,1.5l-4,1.1l-4.1,0.6l-4.2,0.3l-4.3,0l-4.4-0.4l-4.4-0.6l-4.4-0.9l-4.4-1l-4.4-1.1l-4.4-1.1l-4.4-1.1l-4.4-1l-4.4-0.9
	l-4.3-0.6l-4.3-0.3l-4.2,0.1l-4,0.4L610,630l-3.7,1.3l-3.4,1.7l-3.1,2.1l-2.7,2.5l-2.3,2.9l-1.9,3.2l-1.5,3.5l-1.1,3.7l-0.6,3.9
	l-0.2,4.1l0.2,4.2l0.5,4.2l0.8,4.3l0.9,4.3l1.1,4.3l1,4.3l0.9,4.3l0.8,4.3l0.6,4.2l0.2,4.1l-0.1,4l-0.6,3.8l-1,3.6l-1.5,3.4l-2,3.1
	l-2.4,2.8l-2.8,2.6l-3.2,2.2l-3.5,1.9l-3.8,1.6l-4,1.3l-4.2,1l-4.3,0.7l-4.4,0.4l-4.5,0.1l-4.5-0.1l-4.5-0.3l-4.5-0.5l-4.5-0.7
	l-4.5-0.9l-4.4-1l-4.4-1.3l-4.3-1.5l-4.2-1.7l-4-1.9l-3.9-2.1l-3.7-2.4l-3.6-2.6l-3.4-2.8l-3.2-3.1l-3-3.2l-2.8-3.4l-2.6-3.6
	l-2.4-3.7l-2.1-3.9l-1.8-4l-1.6-4.1l-1.3-4.2l-1-4.2l-0.7-4.3l-0.4-4.3l0-4.4l0.3-4.3l0.6-4.3l1-4.2l1.3-4.1l1.6-4l2-3.9l2.3-3.8
	l2.5-3.6l2.8-3.5l3-3.4l3.2-3.2l3.3-3.2l3.4-3l3.5-3l3.5-2.9l3.6-2.9l3.5-3l3.4-3l3.4-3.1l3.2-3.2l3-3.3l2.7-3.4l2.5-3.5l2.2-3.7
	l1.8-3.8l1.5-3.9l1.1-3.9l0.6-4l0.2-4.1l-0.2-4l-0.7-4l-1.1-3.9l-1.6-3.7l-2.1-3.6l-2.4-3.4l-2.7-3.1l-3-2.9l-3.4-2.7l-3.5-2.5
	l-3.7-2.4l-3.9-2.2l-7.9-4.3l-3.9-2.2l-3.8-2.2l-3.6-2.4l-3.4-2.5l-3.2-2.7l-2.9-2.9l-2.6-3.2l-2.2-3.5l-1.8-3.6l-1.4-3.8l-1-4
	l-0.6-4.1l-0.3-4.2l0.1-4.3l0.4-4.3l0.7-4.3l1-4.3l1.1-4.4l1.4-4.3l1.5-4.3l1.6-4.3l1.6-4.3l1.6-4.3l1.5-4.3l1.5-4.3l1.3-4.4
	l1.2-4.4l1-4.4l0.9-4.5l0.7-4.5l0.5-4.5l0.3-4.5l0.2-4.5v-4.6l-0.1-4.5l-0.2-4.6l-0.1-4.5l-0.1-4.4l0.1-4.4l0.3-4.2l0.5-4l0.8-3.7
	l1-3.4l1.3-2.9l1.7-2.4l1.9-1.8l2.2-1.2l2.4-0.6l2.5,0.1l2.6,0.8l2.6,1.4l2.6,2l2.5,2.5l2.5,2.9l2.4,3.3l2.4,3.5l2.4,3.7l2.4,3.8
	l2.3,3.9l2.4,3.9l2.5,3.8l2.5,3.8l2.7,3.6l2.8,3.6l3,3.5l3.1,3.3l3.2,3.2l3.4,3l3.5,2.9l3.6,2.7l3.7,2.6l3.8,2.5l3.8,2.4l3.8,2.4
	l3.8,2.4l3.8,2.4l3.8,2.5l3.7,2.6l3.6,2.7l3.5,2.9l3.4,3l3.3,3.1l3.2,3.2l3.1,3.4l3,3.5l2.9,3.5l2.9,3.6l2.8,3.7l2.8,3.7l2.7,3.8
	l2.7,3.8l2.7,3.7l2.6,3.7l2.7,3.6l2.7,3.5l2.7,3.5l2.8,3.4l2.9,3.2l3,3.1l3.1,2.9l3.2,2.8l3.2,2.7l6.6,5.2l3.2,2.6l3.1,2.6l2.9,2.5
	l2.5,2.5l2.3,2.4l1.9,2.4l1.5,2.2l1.1,1.9l0.8,1.6l0.4,1.1l0,0.6l-0.3,0L692,529l-0.6-1.1L690.3,526.4"/>
<path fill-rule="evenodd" fill="#FFFFFF" d="M516.9,744.8l-3.4,2.8l-3.5,2.5l-3.5,2l-3.5,1.5l-3.4,0.9l-3.2,0.4l-3-0.2l-2.6-0.8
	l-2.1-1.3l-1.7-1.6l-1-1.9l-0.2-2.1l0.6-2.2l1.4-2.2l2.1-2.1l2.8-2.1l3.2-2l3.5-1.9l3.7-2l3.7-2l3.7-2.1l3.5-2.2l3.2-2.4l2.7-2.7
	l2.2-2.9l1.6-3.1l1-3.3l0.4-3.4l-0.2-3.5l-0.7-3.4l-1.1-3.3l-1.6-3l-2.2-2.6l-2.6-2.2l-3.1-1.7l-3.4-1.2l-3.7-0.6l-3.9-0.2l-4.1,0.2
	l-4.2,0.4l-4.4,0.6l-4.5,0.6l-4.6,0.5l-4.6,0.2l-4.5-0.1l-4.3-0.5l-4-1l-3.7-1.5l-3.2-1.9l-2.8-2.3l-2.2-2.7l-1.6-3l-0.9-3.1
	l-0.2-3.2l0.6-3.2l1.3-3l2-2.8l2.6-2.6l3.3-2.3l3.7-2l4.1-1.8l4.4-1.6l4.7-1.4l4.8-1.3l4.8-1.3l4.7-1.4l4.5-1.6l4.2-1.8l3.8-2
	l3.4-2.3l2.7-2.6l2.1-2.8l1.4-3l0.7-3.1l-0.1-3.2l-0.8-3.2l-1.6-3.2l-2.3-3l-2.9-2.9l-3.4-2.6l-3.8-2.4l-4.2-2.2l-4.4-2l-4.7-1.8
	l-4.8-1.8l-4.7-1.7l-4.8-1.8l-4.6-1.9l-4.4-2l-4.1-2.3l-3.7-2.6l-3.4-2.9l-3-3.2l-2.4-3.5l-1.9-3.7l-1.3-4l-0.7-4.1l0-4.2l0.6-4.2
	l1.2-4.1l1.8-3.9l2.3-3.7l2.8-3.4l3.3-3.1l3.7-2.6l4-2.2l4.3-1.8l4.5-1.4l4.7-0.9l4.9-0.6l5-0.1l5,0.2l5,0.5l5.1,0.8l5.1,1.1
	l5.1,1.1l5,1.2l5,1.3l5,1.2l5,1.2l4.9,1l4.9,0.7l4.8,0.4l4.7-0.1l4.6-0.5l4.4-0.9l4.2-1.4l3.9-1.9l3.5-2.5l3.1-2.9l2.8-3.3l2.2-3.7
	l1.7-4l1.2-4.2l0.6-4.3l0-4.4l-0.6-4.4l-1.1-4.3l-1.6-4.2l-2.1-4l-2.6-3.7l-3-3.6l-3.4-3.3l-3.8-3l-4.1-2.9l-4.3-2.6l-4.5-2.5
	l-4.5-2.4l-4.5-2.4l-4.5-2.4l-4.4-2.5l-4.2-2.6l-4-2.9l-3.8-3l-3.4-3.3l-3-3.6l-2.5-3.8l-2-4l-1.4-4.2l-0.9-4.3l-0.4-4.4l0.3-4.4
	l0.8-4.4l1.3-4.2l1.9-4.1l2.4-3.9l2.9-3.6l3.3-3.3l3.7-3l4-2.7l4.3-2.3l4.5-2l4.7-1.6l4.9-1.4l5-1.2l5.1-0.9l5.1-0.7l5.1-0.5
	l5.2-0.4l5.2-0.3l5.2-0.2l5.2-0.1l5.3,0l5.2,0.1l5.2,0.3l5.3,0.4l5.2,0.5l5.1,0.7l5.1,0.9l5.1,1l5.1,1.1l5,1.4l4.9,1.6l4.9,1.8
	l4.7,2.1l4.7,2.2l4.5,2.5l4.5,2.6l4.3,2.8l4.2,3l4.1,3.1l3.9,3.3l3.8,3.6l3.5,3.7l3.3,3.9l3.2,4.1l2.9,4.2l2.6,4.4l2.3,4.5l2.1,4.6
	l1.7,4.7l1.4,4.9l1,4.9l0.7,4.9l0.3,4.9l0,5l-0.4,4.9l-0.8,4.9l-1.2,4.8l-1.5,4.8l-1.9,4.7l-2.1,4.6l-2.4,4.5l-2.6,4.5l-2.7,4.4
	l-2.7,4.3l-2.7,4.3l-2.6,4.4l-2.4,4.4l-2.1,4.5l-1.7,4.5l-1.3,4.6l-1,4.6l-0.5,4.6l0,4.6l0.4,4.7l0.9,4.7l1.4,4.7l1.7,4.6l2,4.6
	l2.3,4.6l2.4,4.5l2.6,4.5l2.7,4.5l2.7,4.5l2.6,4.5l2.4,4.5l2.3,4.6l2.1,4.6l1.7,4.6l1.3,4.5l0.8,4.4l0.4,4.4l-0.1,4.2l-0.7,4
	l-1.4,3.7l-2,3.4l-2.5,3.2l-3,2.8l-3.5,2.5l-3.9,2.1l-4.3,1.8l-4.5,1.6l-4.8,1.5l-4.9,1.3l-5,1.2l-5.1,1.2l-5.1,1.3l-5.1,1.4l-5,1.4
	l-4.9,1.6l-4.9,1.8l-4.8,1.9l-4.8,2.1l-4.7,2.2l-4.6,2.4l-4.6,2.5l-9.2,4.9l-4.6,2.5l-4.6,2.4l-4.7,2.3l-4.8,2.2l-4.8,2l-4.8,1.9
	l-4.9,1.8l-4.9,1.7l-4.9,1.7l-4.8,1.7l-4.7,1.7l-4.6,1.8l-4.4,2l-4.2,2.2l-4.1,2.4l-3.9,2.7l-3.7,2.9l-3.6,3l-3.4,3.2l-3.3,3.2
	L516.9,744.8"/>
<path fill-rule="evenodd" fill="#FFFFFF" d="M690.8,691.7l-2.5,4l-2.9,3.7l-3.2,3.4l-3.5,3.1l-3.7,2.8l-3.9,2.5l-4,2.2l-4.2,1.8
	l-4.3,1.5l-4.4,1.3l-4.5,1l-4.5,0.9l-4.6,0.7l-4.6,0.6l-4.7,0.6l-4.7,0.5l-4.7,0.5l-4.7,0.6l-4.7,0.7l-4.6,0.7l-4.6,0.8l-4.7,0.9
	l-4.6,0.9l-9.1,2.1l-4.6,1.1l-4.5,1.1l-4.6,1.1l-4.6,1.1l-4.6,0.9l-4.6,0.7l-4.6,0.6l-4.6,0.4l-4.6,0.2l-4.6,0l-4.6-0.3l-4.5-0.5
	l-4.5-0.8l-4.4-1l-4.4-1.3l-4.3-1.5l-4.3-1.6l-4.2-1.8l-8.3-3.5l-4.2-1.5l-4.1-1.5l-4-1.3l-4.1-1.1l-4.1-0.9l-4.1-0.6l-4.2-0.3
	l-4.2-0.1l-4.2,0l-4.2-0.1l-4-0.1l-3.8-0.3l-3.5-0.4l-3.1-0.6l-2.6-0.8l-2.1-0.9l-1.4-1.1l-0.9-1.4l-0.2-1.5l0.4-1.6l0.9-1.6
	l1.2-1.7l1.5-1.7l1.6-1.8l1.6-1.8l1.7-1.9l1.6-1.9l1.4-1.9l1.3-1.8l1.2-1.9l1.3-1.8l1.4-1.9l1.6-1.8l1.8-1.8l2-1.8l2.1-1.7l2.1-1.7
	l2-1.8l1.7-1.8l1.5-1.9l1.1-2l0.5-2.1l-0.2-2.2l-0.8-2.2l-1.5-2.3l-1.9-2.3l-2.4-2.3l-2.6-2.3l-2.7-2.3l-2.6-2.3l-2.4-2.3l-2-2.3
	l-1.5-2.3l-0.9-2.3l-0.2-2.4l0.4-2.5l1.1-2.5l1.6-2.6l1.9-2.7l2.1-2.7l2.1-2.8l2.1-2.9l1.8-2.9l1.4-3l0.9-3l0.3-3l-0.4-2.9l-1-3
	l-1.6-2.9l-2.1-2.8l-2.4-2.8l-2.7-2.7l-2.9-2.8l-2.9-2.8l-2.7-2.7l-2.4-2.9l-2-2.9l-1.5-3l-0.9-3.1l-0.2-3.1l0.4-3.2l1-3.2l1.5-3.3
	l1.9-3.3l2.3-3.3l2.5-3.4l2.6-3.4l2.7-3.4l2.6-3.5l2.4-3.6l2-3.7l1.7-3.8l1.2-3.9l0.8-4l0.3-4l-0.2-4.1l-0.7-4l-1.1-4l-1.5-4l-1.8-4
	l-2-3.9l-2.3-3.9l-2.4-3.9l-2.4-3.9l-2.3-3.9l-2.2-4l-2-4.1l-1.8-4.1l-1.5-4.2l-1.3-4.4l-1.1-4.4l-0.8-4.5l-0.5-4.5l-0.3-4.5l0-4.6
	l0.2-4.6l0.4-4.6l0.6-4.6l0.8-4.6l1-4.5l1.2-4.4l1.5-4.3l1.7-4.1l1.9-4l2.2-3.8l2.5-3.5l2.8-3.2l3.1-2.9l3.3-2.5l3.5-2.1l3.7-1.7
	l3.9-1.2l4-0.8l4-0.3l4.1,0.2l4.1,0.7l4,1.1l3.9,1.6l3.8,2l3.6,2.4l3.4,2.7l3.2,3l3.1,3.3l3,3.5l2.8,3.6l2.7,3.8l2.6,3.9l2.5,4
	l2.5,4l2.5,4l2.4,4.1l4.9,8.1l2.5,4l2.5,4l2.6,4l2.6,4l2.7,3.9l2.7,3.8l2.8,3.9l2.8,3.8l2.8,3.8l2.8,3.8l2.8,3.8l2.8,3.8l2.7,3.8
	l2.7,3.9l2.6,3.9l2.4,3.9l2.3,4.1l2.1,4.1l1.9,4.2l1.7,4.2l1.5,4.3l1.2,4.4l0.9,4.4l0.6,4.5l0.3,4.5l-0.1,4.5l-0.4,4.5l-0.7,4.4
	l-1,4.3l-1.3,4.3l-1.6,4.2l-1.8,4.1l-2.1,4.1l-2.3,4l-2.5,3.9l-2.6,3.9l-2.7,3.8l-2.8,3.8l-5.6,7.5l-2.8,3.8l-2.7,3.8l-2.6,3.9
	l-2.4,3.9l-2.2,4l-2,4.1l-1.7,4.1l-1.4,4.1l-1.1,4.2l-0.6,4.2l-0.2,4.2l0.3,4.1l0.8,4l1.2,3.8l1.7,3.6l2.1,3.3l2.5,2.9l2.9,2.6
	l3.2,2.1l3.5,1.7l3.7,1.2l3.9,0.7l4.1,0.2l4.1-0.2l4.2-0.6l4.2-1l4.2-1.3l4.1-1.7l4.1-1.9l4.1-2.1l4.1-2.2l4.1-2.2l4.1-2.2l4.1-2.2
	l4.2-2.1l4.3-1.9l4.3-1.8l4.3-1.5l4.4-1.3l4.4-1.1l4.4-0.7l4.4-0.4l4.4-0.1l4.3,0.3l4.3,0.7l4.2,1.1l4,1.4l3.8,1.8l3.6,2.2l3.4,2.5
	l3.1,2.9l2.7,3.2l2.3,3.5l1.9,3.7l1.4,4l0.9,4.1l0.3,4.3l-0.1,4.3l-0.7,4.4l-1.2,4.4l-1.6,4.3L690.8,691.7"/>
<path fill-rule="evenodd" fill="#FFFFFF" d="M714.2,688.9l-0.6,4.4l-1.1,4.3l-1.7,4.2l-2.1,3.9l-2.6,3.7l-3,3.4l-3.3,3.2l-3.6,2.9
	l-3.9,2.6l-4.1,2.3l-4.3,1.9l-4.4,1.7l-4.5,1.4l-4.6,1.2l-4.7,1l-4.8,0.8l-4.8,0.6l-4.8,0.4l-4.8,0.2l-4.8,0.1l-4.8-0.1l-4.9-0.2
	l-4.9-0.4l-4.8-0.5l-4.8-0.6l-4.8-0.8l-4.8-0.8l-4.8-1l-4.7-1.1l-4.7-1.2l-4.7-1.3l-4.7-1.3l-4.7-1.4l-4.6-1.4l-4.6-1.4l-4.7-1.4
	l-4.7-1.3l-4.7-1.3l-4.7-1.1l-4.7-1l-4.7-0.8l-4.8-0.6l-4.7-0.3l-4.7-0.1l-4.7,0.2l-4.7,0.5l-4.6,0.9l-4.5,1.1l-4.5,1.4l-4.4,1.7
	l-4.4,1.9l-4.3,2l-8.5,4.2l-4.2,2l-4.1,1.8l-4,1.6l-3.9,1.2l-3.7,0.8l-3.5,0.2l-3.3-0.3l-2.9-0.9l-2.6-1.5l-2.1-2.1l-1.7-2.6
	l-1.3-3.1l-0.8-3.5l-0.4-3.8l0.1-4.1l0.5-4.3l0.9-4.4l1.1-4.5l1.3-4.5l1.4-4.6l1.6-4.6l1.6-4.6l1.6-4.6l1.6-4.6l1.5-4.7l1.4-4.6
	l1.3-4.7l1.2-4.7l1-4.7l0.9-4.7l0.8-4.8l0.6-4.8l0.4-4.8l0.4-4.9l0.3-4.9l0.2-4.9l0.2-4.9l0.2-4.9l0.3-4.8l0.4-4.9l0.6-4.8l0.7-4.7
	l0.9-4.6l1.2-4.6l1.4-4.5l1.6-4.4l1.9-4.3l2.1-4.2l2.3-4.1l2.5-4l2.7-4l2.7-3.9l2.9-3.9l2.9-3.9l2.9-3.9l2.7-3.9l2.5-4l2.3-4l2.1-4
	l1.9-4l1.6-4l1.3-4l1-4l0.6-4l0.4-3.8l0.2-3.7l0.2-3.5l0.1-3.3l0.1-3.1l0.1-2.9l0.1-2.7l0.4-2.5l0.5-2.4l0.8-2.2l1.2-1.9l1.5-1.8
	l1.7-1.6l1.9-1.5l2-1.5l2.1-1.3l2.2-1.1l2.4-0.8l2.5-0.4l2.5,0l2.6,0.4l2.6,0.8l2.6,1.1l2.6,1.3l2.7,1.5l2.7,1.5l2.7,1.5l2.8,1.2
	l2.8,0.8l2.7,0.3l2.6-0.3l2.4-1l2.3-1.6l2-2.2l1.9-2.8l1.7-3.4l1.5-3.7l1.3-4.1l1.2-4.3l1.2-4.5l2.3-9.1l1.3-4.5l1.4-4.5l1.6-4.4
	l1.8-4.3l2.1-4.2l2.3-3.9l2.6-3.7l2.9-3.5l3.2-3.1l3.4-2.9l3.6-2.5l3.8-2.1l4-1.6l4-1.2l4.1-0.6l4.1-0.2l4,0.4l3.7,0.9l3.5,1.4
	l3.1,2l2.7,2.4l2.2,2.8l1.8,3.2l1.4,3.5l0.9,3.8l0.6,4l0.3,4.2l0.1,4.3l-0.1,4.4l-0.1,4.4l-0.1,4.4l-0.2,4.5l-0.1,4.4l-0.1,4.4
	l-0.2,4.3l-0.3,4.3l-0.6,4.2l-0.7,4l-1.1,3.9l-1.4,3.7l-1.9,3.4l-2.3,3.3l-2.7,3.1l-3.1,2.9l-3.4,2.7l-3.5,2.6l-3.6,2.7l-3.6,2.7
	l-3.6,2.7l-3.3,2.8l-3,3l-2.6,3.1l-2.2,3.3l-1.6,3.4l-1,3.5l-0.4,3.4l0.2,3.4l0.9,3.3l1.5,3.1l2,2.8l2.6,2.5l3.1,2.2l3.5,1.8
	l3.9,1.3l4.1,1.1l4.4,0.8l4.6,0.6l4.7,0.4l4.7,0.3l4.7,0.3l4.7,0.4l4.6,0.6l4.4,0.9l4.2,1.2l3.9,1.5l3.6,1.9l3.2,2.2l2.8,2.6
	l2.3,2.9l1.7,3.2l1.1,3.4l0.5,3.6l0,3.7l-0.7,3.6l-1.3,3.6L685,573l-2.4,3.3l-2.8,3l-3.2,2.8l-3.6,2.5l-3.9,2.2l-4.1,2l-4.3,1.8
	l-4.5,1.6l-4.5,1.5l-4.6,1.5l-4.5,1.4l-4.4,1.6l-4.2,1.7l-4.1,1.9l-3.8,2.1l-3.5,2.4l-3.2,2.7l-2.8,2.9l-2.3,3.3l-1.8,3.5l-1.2,3.6
	l-0.6,3.8l0,3.9l0.6,3.8l1.1,3.7l1.6,3.6l2.1,3.4l2.6,3l3.1,2.7l3.4,2.4l3.7,1.9l4,1.6l4.2,1.2l4.4,0.9l4.5,0.5l4.7,0.2l4.7,0
	l4.8-0.2l4.7-0.2l4.7-0.2l4.7-0.2l4.6-0.1l4.5,0.2l4.5,0.4l4.3,0.8l4.1,1.2l3.8,1.7l3.4,2.1l3.1,2.6l2.6,3l2.1,3.4l1.6,3.7l1.1,3.9
	l0.5,4.2L714.2,688.9"/>
<path fill-rule="evenodd" fill="#FFFFFF" d="M690.7,470.3l0.2,3.3l0.4,3.4l0.6,3.4l1,3.4l1.2,3.3l1.6,3.3l1.9,3.3l2.2,3.2l2.5,3
	l2.8,2.9l3.1,2.7l3.3,2.5l3.5,2.4l3.5,2.3l3.5,2.3l3.3,2.4l3.2,2.5l2.8,2.6l2.5,2.8l2.1,2.9l1.6,3.1l1,3.3l0.6,3.5l0.1,3.6l-0.4,3.8
	l-0.9,3.8l-1.4,3.9l-1.7,3.9l-2,3.9l-2.3,3.7l-2.5,3.6l-2.8,3.4l-3,3.3l-3.1,3.1l-3.3,2.7l-3.4,2.4l-3.6,2l-3.6,1.6l-3.8,1.2
	l-3.8,0.7l-3.8,0.2l-3.8-0.3l-3.8-0.9l-3.6-1.4l-3.5-1.8l-3.4-2.3l-3.2-2.6l-3-2.9l-2.9-3.2l-2.8-3.3l-2.8-3.4l-2.8-3.5l-2.8-3.4
	l-2.8-3.3l-3-3.2l-3.1-3.1l-3.3-2.9l-3.5-2.6l-3.7-2.3l-3.8-2l-3.9-1.8l-4.1-1.4l-4.2-1.1l-4.3-0.8l-4.3-0.5l-4.3,0l-4.3,0.3
	l-4.3,0.6l-4.1,1l-4,1.4l-3.9,1.7l-3.8,2l-3.6,2.3l-3.4,2.7l-3.2,2.9l-3,3.2l-2.7,3.4l-2.4,3.6l-2,3.8l-1.8,3.9l-1.4,4.1l-1.1,4.1
	l-0.6,4.2l-0.3,4.3l0.1,4.3l0.4,4.3l0.7,4.3l1,4.3l1.2,4.3l1.4,4.3l1.6,4.2l1.7,4.2l1.7,4.2l1.6,4.2l1.5,4.3l1.3,4.3l1.1,4.3
	l0.8,4.3l0.5,4.3l0.1,4.3l-0.2,4.3l-0.6,4.2l-1,4.1l-1.3,4.1l-1.7,3.9l-2,3.8l-2.3,3.7l-2.6,3.5l-2.9,3.4l-3,3.2l-3.2,3.2l-3.4,3
	l-3.6,2.9l-3.7,2.8l-3.8,2.7l-3.8,2.5l-3.9,2.5l-4,2.4l-4,2.3l-4.1,2.2l-4.1,2.1l-4.1,2l-4.2,1.8l-4.2,1.7l-4.3,1.5l-4.4,1.3
	l-4.4,1.1l-4.4,0.8l-4.4,0.6l-4.4,0.3l-4.3,0l-4.3-0.4l-4.2-0.7l-4.1-1.1l-4-1.4l-3.8-1.8l-3.6-2.2l-3.3-2.5l-2.9-2.8l-2.6-3.1
	l-2.2-3.4l-1.8-3.6l-1.3-3.8l-0.9-4l-0.5-4l0-4.1l0.4-4.1l0.8-4.1l1.2-4.1l1.5-4l1.9-3.9l2.1-3.9l2.4-3.8l2.6-3.8l2.7-3.7l2.7-3.6
	l2.8-3.6l2.8-3.6l2.7-3.6l2.7-3.7l2.6-3.8l2.5-3.8l2.3-3.9l2.1-4l1.9-4.1l1.8-4.2l1.6-4.2l1.4-4.3l1.2-4.4l1-4.4l0.9-4.5l0.8-4.5
	l0.6-4.6l0.5-4.6l0.3-4.6l0.3-4.6l0.2-4.6l0.1-4.6l0-4.6l-0.2-4.6l-0.2-4.6l-0.4-4.5l-0.6-4.5l-0.8-4.5l-0.9-4.5l-1.1-4.5l-1.2-4.4
	l-1.4-4.3l-1.6-4.2l-1.7-4.2l-1.9-4.1l-2.1-4.1l-2.2-4.1l-2.2-4l-2.3-4l-2.4-4l-2.4-4l-4.8-8l-2.4-4l-2.3-4l-2.3-4l-2.2-4.1
	l-2.1-4.1l-2-4.1l-1.8-4.1l-1.7-4.2l-1.4-4.3l-1.2-4.3l-0.9-4.2l-0.6-4.3l-0.1-4.2l0.2-4.2l0.7-4.1l1-3.9l1.4-3.8l1.9-3.7l2.2-3.5
	l2.6-3.3l2.9-3.1l3.2-2.9l3.5-2.6l3.6-2.4l3.8-2.1l4-1.9l4.2-1.6l4.3-1.3l4.3-1.1l4.4-0.8l4.4-0.6l4.4-0.2l4.4,0l4.4,0.3l4.4,0.6
	l4.3,0.9l4.2,1.2l4.2,1.5l4,1.8l3.9,2l3.8,2.3l3.7,2.5l3.6,2.7l3.5,2.8l3.5,2.9l3.4,3l3.4,3l3.4,2.9l3.5,2.8l3.5,2.7l3.7,2.5
	l3.7,2.2l3.9,2l4,1.6l4,1.3l4.2,0.9l4.2,0.6l4.3,0.2l4.3-0.1l4.3-0.6l4.2-0.9l4.1-1.2l4.1-1.5l4-1.8l3.9-2l3.8-2.1l3.7-2.2l3.5-2.3
	l3.5-2.2l3.4-2.2l3.4-2l3.5-1.8l3.6-1.4l3.6-1l3.7-0.6l3.7-0.2l3.8,0.2l3.7,0.6l3.7,1l3.6,1.4l3.4,1.8l3.1,2.3l2.8,2.7l2.4,3
	l2.1,3.2l1.7,3.5l1.4,3.7l1.1,3.9l0.8,4l0.5,4.1l0.2,4.1l0,4.1l-0.2,4l-0.2,3.9l-0.3,3.8l-0.4,3.7l-0.3,3.6l-0.3,3.4l-0.3,3.4
	l-0.2,3.3l-0.1,3.2L690.7,470.3"/>
<path fill-rule="evenodd" fill="#FFFFFF" d="M573.6,737l-3.5,2.5l-3.4,2.6l-3.3,2.7l-3.2,2.6l-3,2.4l-3,2.2l-2.9,1.8l-2.7,1.4
	l-2.4,0.9l-2.1,0.4l-1.8-0.2l-1.4-0.8l-1.1-1.3l-0.7-1.8l-0.5-2.1l-0.3-2.3l-0.6-4.8l-0.5-2.4l-0.6-2.3l-0.9-2.2l-1.2-2.1l-1.4-1.9
	l-1.6-1.7l-1.9-1.7l-2-1.8l-4.4-3.7l-2.2-1.9l-2.3-1.8l-2.3-1.7l-2.4-1.4l-2.5-1.2l-2.6-0.7l-2.8-0.3l-3,0.1l-3.2,0.6l-3.3,1.1
	l-3.5,1.5l-3.6,1.8l-3.8,2l-3.9,2.1l-3.9,2l-4,1.7l-3.9,1.4l-3.9,0.9l-3.8,0.4l-3.6-0.2l-3.4-0.8l-3.1-1.4l-2.9-2l-2.5-2.6l-2.1-3.1
	l-1.7-3.5l-1.1-3.8l-0.6-4l-0.1-4.1l0.5-4.1l1-4.1l1.5-3.9l2-3.7l2.5-3.6l2.9-3.2l3.3-2.9l3.6-2.6l3.9-2.3l4.1-2l4.4-1.7l4.6-1.5
	l4.7-1.3l4.8-1.1l4.8-0.9l4.9-0.9l4.8-0.9l4.8-0.9l4.6-1l4.5-1.2l4.3-1.5l4-1.7l3.5-2l3.6-2.2l2.6-2.5l2-2.8l1.3-3l0.7-3.2l0-3.3
	l-0.7-3.3l-1.4-3.2l-2-3.1l-2.6-3l-3-2.9l-3.4-2.8l-3.6-2.7l-3.6-2.6l-3.5-2.6l-3.2-2.6l-2.9-2.7l-2.4-2.7l-1.9-2.9l-1.2-2.9
	l-0.6-3.1l0.1-3.2l0.7-3.3l1.2-3.4l1.6-3.5l1.9-3.6l1.9-3.6l1.9-3.7l1.8-3.7l1.4-3.7l1-3.8l0.4-3.7l-0.2-3.6l-0.8-3.5l-1.4-3.4
	l-2-3.1l-2.6-2.9l-3-2.6l-3.5-2.3l-3.9-2l-4.2-1.6l-4.4-1.4l-4.6-1.1l-4.7-0.9l-4.8-0.7l-4.9-0.6l-4.9-0.6l-4.8-0.7l-4.7-0.8l-4.6-1
	l-4.4-1.3l-4.2-1.6l-3.9-2l-3.6-2.3l-3.2-2.6l-2.8-3.1l-2.3-3.3l-1.8-3.6l-1.3-3.9l-0.8-4l-0.3-4.2l0.2-4.3l0.8-4.4l1.2-4.3l1.6-4.3
	l2-4.3l2.2-4.2l2.4-4.2l2.5-4.2l2.6-4.2l2.6-4.2l5.1-8.5l2.5-4.3l2.4-4.3l2.3-4.4l2.2-4.2l4.6-8.8l2.3-4.3l2.4-4.2l2.6-4.2l2.6-4
	l2.9-3.8l3.1-3.5l3.3-3.4l3.6-3.1l3.7-2.8l4-2.5l4.2-2.2l4.3-2l4.5-1.8l4.7-1.5l4.7-1.4l4.8-1.2l4.9-1l4.9-0.9l4.9-0.8l5-0.7l5-0.5
	l5-0.4l5-0.3l5-0.3l5-0.2l5-0.1h5l5.1,0.1l5.1,0.2l5,0.3l5,0.3l5,0.4l5,0.4l5,0.6l5,0.8l4.9,0.9l4.9,1l4.8,1.3l4.7,1.5l4.6,1.7
	l4.4,1.9l4.3,2.1l4.2,2.4l3.9,2.7l3.6,3l3.4,3.2l3.1,3.5l2.8,3.7l2.4,3.9l2.1,4.1l1.6,4.2l1.2,4.4l0.8,4.5l0.3,4.5l-0.1,4.5
	l-0.6,4.5l-1,4.4l-1.4,4.3l-1.8,4.3l-2.1,4.2l-2.5,4.1l-2.7,4l-3,3.9l-3.2,3.8l-3.2,3.7l-3.3,3.7l-3.4,3.6l-3.4,3.6l-3.4,3.7
	l-3.3,3.7l-3.2,3.8l-3.1,3.9l-3,4l-2.8,4.1l-2.6,4.1l-2.4,4.2l-2.2,4.3l-2,4.4l-1.7,4.5l-1.4,4.6l-1.1,4.7l-0.9,4.7l-0.5,4.7
	l-0.2,4.7l0.3,4.7l0.6,4.6l0.9,4.6l1.4,4.5l1.7,4.3l2.1,4.1l2.4,4l2.8,3.7l3.1,3.6l3.4,3.4l3.5,3.2l3.7,3.1l3.8,3l3.9,3l3.8,3l3.7,3
	l3.5,3.1l3.4,3.2l3.1,3.4l2.9,3.6l2.6,3.8l2.2,4l1.9,4.2l1.6,4.4l1.3,4.6l0.9,4.6l0.7,4.7l0.3,4.8v4.8l-0.3,4.8l-0.6,4.7l-0.9,4.6
	l-1.3,4.4l-1.6,4.3l-2,4.2l-2.4,3.9l-2.7,3.7l-3.1,3.5l-3.4,3.2l-3.7,3l-3.9,2.8l-4.1,2.6l-4.2,2.3l-4.4,2.1l-4.5,2l-4.6,1.8
	l-4.7,1.6l-4.7,1.5l-4.7,1.5l-9.1,2.9l-4.5,1.5l-4.3,1.6l-4.1,1.6l-4,1.8l-3.8,2l-3.6,2.2L573.6,737"/>
<path fill-rule="evenodd" fill="#FFFFFF" d="M711.6,683.8l0.2,4.9l-0.4,4.7l-0.9,4.5l-1.3,4.2l-1.8,4l-2.3,3.6l-2.8,3.3l-3.1,2.9
	l-3.5,2.6L692,721l-4,2.1l-4.2,1.9l-4.4,1.7l-4.5,1.7l-4.6,1.6l-4.6,1.5L661,733l-4.7,1.5l-4.7,1.5l-4.8,1.4l-9.4,2.7l-4.7,1.2
	l-4.8,1.1l-4.7,1l-4.8,0.9l-4.8,0.8l-4.8,0.7l-4.9,0.6l-4.9,0.4l-4.9,0.2l-4.9,0.1l-4.8,0l-4.9-0.2l-4.9-0.3l-4.9-0.4l-4.9-0.4
	l-4.9-0.5l-4.9-0.5l-4.9-0.5l-9.8-1l-4.9-0.4l-4.9-0.4l-4.9-0.3l-4.9-0.2L516,742l-4.9-0.1l-9.8,0.1l-4.9,0l-4.8,0.1l-4.7-0.1
	l-4.6-0.2l-4.3-0.3l-4.1-0.5l-3.8-0.8l-3.6-1.1l-3.2-1.4l-2.8-1.7l-2.3-2.2l-2-2.6l-1.6-2.9l-1.4-3.3l-1.2-3.6l-0.9-3.7l-0.7-3.8
	l-0.6-4l-0.4-4l-0.4-3.9l-0.4-3.9l-0.4-3.8l-0.2-3.6l-0.1-3.5l0.1-3.3l0.2-3.2l0.2-3.3l0.1-3.2l0.1-3.1l0.2-3.1l0.2-3.1l0-3l-0.1-3
	l-0.4-3l-0.8-3l-1.3-3l-1.6-2.9l-1.9-2.9l-2.2-2.8l-2.4-3l-2.6-3l-2.6-3.2l-2.6-3.4l-2.4-3.5l-2.2-3.6l-1.8-3.7l-1.4-3.8l-0.9-3.9
	l-0.3-3.8l0.2-3.7l0.8-3.6l1.3-3.3l1.8-2.9l2.3-2.6l2.7-2.1l3-1.5l3.3-0.9l3.5-0.3l3.7,0.3l3.8,0.9l3.8,1.5l3.7,1.9l3.7,2.3l3.7,2.5
	l3.7,2.7l3.6,2.8l3.7,2.7l3.7,2.7l3.8,2.4l3.9,2l3.9,1.6l3.8,1.1l3.9,0.5l3.9,0l3.7-0.6l3.5-1.2l3.3-1.7l3-2.2l2.6-2.7l2.2-3.2
	l1.7-3.5l1.3-3.8l0.8-4.1l0.3-4.3l-0.1-4.3l-0.6-4.4l-1-4.4l-1.3-4.4l-1.7-4.3l-2.1-4.2l-2.3-4l-2.6-3.9l-2.9-3.7l-3.1-3.5l-3.2-3.6
	l-3.5-3.2l-3.6-3.1l-3.8-3.1l-3.8-3l-3.8-3l-3.8-3l-3.8-3l-3.6-3.1l-3.6-3.2l-3.4-3.3l-3.2-3.5l-2.9-3.7l-2.8-3.8l-2.5-4l-2.2-4.1
	l-1.9-4.3l-1.6-4.3l-1.3-4.5l-0.9-4.6l-0.6-4.6l-0.3-4.6l0-4.7l0.4-4.7l0.6-4.7l0.9-4.7l1.1-4.7l1.2-4.6l1.4-4.6l1.5-4.6l1.7-4.5
	l1.9-4.5l2-4.4l2.2-4.3l2.3-4.1l2.5-3.9l2.7-3.7l2.9-3.5l3.1-3.1l3.4-2.8l3.6-2.4l3.8-1.9l4-1.5l4.1-1.1l4.2-0.6l4.2-0.1l4.2,0.4
	l4.1,0.9l4,1.4l3.7,1.9l3.5,2.3l3.3,2.7l2.9,3.1l2.6,3.5l2.4,3.8l2.1,4l1.8,4.2l1.6,4.4l1.4,4.6l1.3,4.7l3.5,14.1l1.3,4.7l1.4,4.6
	l1.5,4.6l1.7,4.5l1.8,4.4l2.1,4.3l2.3,4.2l2.5,4l2.7,3.9l2.9,3.7l3.2,3.5l3.4,3.3l3.6,3l3.8,2.7l4,2.4l4.1,2l4.2,1.7l4.4,1.3
	l4.5,0.9l4.5,0.5l4.5,0.1l4.5-0.2l4.5-0.6l4.5-1l4.5-1.3l4.4-1.6l4.4-1.8l4.3-2l4.3-2.1l4.3-2.1l4.3-2l4.4-1.8l4.4-1.6l4.4-1.4
	l4.5-1.1l4.4-0.7l4.4-0.3l4.3,0.1l4.2,0.6l4,1.1l3.9,1.6l3.5,2.1l3.3,2.5l2.9,2.9l2.5,3.2l2,3.5l1.6,3.8l1.1,3.9l0.6,4.1l0,4.2
	l-0.5,4.2l-1,4.1l-1.4,4.1l-1.9,3.9l-2.3,3.8L702,537l-3,3.5l-3.2,3.4l-3.4,3.3l-3.4,3.3l-3.4,3.3l-3.4,3.3l-3.2,3.4l-3,3.5
	l-2.7,3.6l-2.4,3.8l-2,3.9l-1.6,4l-1.2,4.1l-0.7,4.2l-0.3,4.3l0.3,4.3l0.7,4.4l1.2,4.3l1.5,4.2l2,4.1l2.3,4l2.5,3.9l2.7,3.9l3,3.8
	l3,3.7l3.1,3.7l3.1,3.7l3.1,3.8l3,3.9l2.9,4l2.6,4.2l2.4,4.4l2.2,4.5l1.8,4.6l1.4,4.8l1.1,4.9L711.6,683.8"/>
<path fill-rule="evenodd" fill="#FFFFFF" d="M738.7,531.2l-1.1,2.5l-1.1,2.5l-1,2.6l-0.8,2.7l-0.6,2.8l-0.2,2.9l0.1,3.1l0.5,3.2
	l0.7,3.3l1.1,3.4l1.3,3.5l1.4,3.6l1.6,3.6l1.5,3.6l1.3,3.7l1.1,3.7l0.7,3.6l0.1,3.5l-0.4,3.3l-1,3l-1.5,2.7l-2,2.3L738,602l-2.7,1.4
	l-3,0.8l-3.1,0.2l-3.2-0.4l-3.3-1l-3.2-1.6l-3.2-2l-3.2-2.3l-3.1-2.5l-3-2.5l-2.9-2.4l-2.9-2.2l-2.8-1.8l-2.8-1.4l-2.8-0.8l-2.8-0.2
	l-2.8,0.4l-2.8,1.1l-2.8,1.5l-2.7,2l-2.8,2.2l-2.8,2.4l-2.8,2.4l-2.9,2.2l-3,1.9l-3.1,1.6l-3.6,1.3l-3.4,0.6l-3.5,0.1l-3.6-0.3
	l-3.7-0.7l-3.8-0.9l-3.9-1.1l-3.9-1.1l-3.9-0.9l-3.9-0.7l-3.9-0.4l-3.7,0l-3.6,0.5l-3.4,1l-3.2,1.6l-2.9,2.1l-2.5,2.6l-2.1,2.9
	l-1.6,3.3l-1.2,3.6l-0.7,3.8l-0.2,4l0.3,4l0.8,4.1l1.2,4l1.6,4l1.9,3.9l2.1,3.8l2.4,3.8l2.4,3.8l2.4,3.8l2.4,3.8l2.3,3.8l2.1,3.9
	l1.8,4l1.5,4l1.2,4.1l0.8,4.2l0.4,4.2l-0.1,4.3l-0.5,4.2l-0.9,4.1l-1.3,4l-1.8,3.9l-2.1,3.8l-2.5,3.5l-2.7,3.3l-3.1,3.1l-3.4,2.9
	l-3.6,2.6l-3.8,2.4l-3.9,2.3l-4.1,2.1l-4.2,2l-4.3,1.8l-4.4,1.6l-4.4,1.5l-4.5,1.4l-4.5,1.3l-4.5,1.1l-4.5,1l-4.6,0.8l-4.6,0.7
	l-4.6,0.5l-4.6,0.2l-4.6,0l-4.5-0.3l-4.4-0.6l-4.3-0.9l-4.1-1.3l-3.9-1.6l-3.6-2l-3.4-2.3l-3.1-2.7l-2.8-3l-2.4-3.4l-2-3.6l-1.7-3.8
	l-1.2-4l-0.8-4.1l-0.4-4.3l0-4.3l0.4-4.3l0.7-4.4l1-4.3l1.4-4.3l1.5-4.2l1.8-4.2l2-4.2l2.1-4.2l4.4-8.3l2.2-4.2l2.2-4.2l2.2-4.2
	l2.1-4.2l2-4.2l1.8-4.3l1.8-4.4l1.7-4.4l1.5-4.4l1.4-4.5l1.3-4.5l1.2-4.3l1-4.5l0.8-4.6l0.6-4.6l0.4-4.5l0.1-4.5l-0.2-4.4l-0.5-4.4
	l-0.8-4.4l-1.2-4.2l-1.5-4.1l-1.8-4l-2.1-3.9l-2.4-3.7l-2.6-3.6l-2.8-3.6l-2.9-3.5l-2.9-3.4l-2.9-3.5l-2.8-3.6l-2.6-3.6l-2.4-3.7
	l-2.1-3.8l-1.8-3.9l-1.4-4l-1-4.1l-0.5-4.2l-0.1-4.2l0.4-4.2l0.8-4.1l1.2-4l1.6-4l2-3.8l2.3-3.6l2.7-3.5l3-3.3l3.2-3.1l3.4-2.9
	l3.6-2.7l3.8-2.6l3.9-2.4l3.9-2.4l4-2.3l4-2.3l3.9-2.4l3.8-2.5l3.7-2.6l3.4-2.7l3.1-2.8l2.7-3l2.3-3.2l1.7-3.3l1.3-3.4l0.6-3.5
	l0.1-3.6L558,417l-1.1-3.5l-1.6-3.5l-2.1-3.4l-2.5-3.3l-2.8-3.2l-3.1-3.1l-3.2-3l-3.4-3l-3.2-3l-3.1-3l-2.9-3.1l-2.5-3.1l-2.1-3.2
	l-1.6-3.3l-1-3.2l-0.5-3.1l0.2-3l0.8-2.8l1.4-2.5l2-2.2l2.5-1.7l3-1.3l3.3-0.8l3.6-0.4l3.9,0l4.1,0.5l4.2,0.8l4.2,1.1l4.3,1.4
	l4.3,1.6l4.4,1.7l4.3,1.7l4.4,1.8l4.4,1.7l4.4,1.7l4.4,1.6l4.4,1.5l4.5,1.4l4.5,1.4l4.5,1.3l4.5,1.3l4.5,1.3l4.4,1.4l4.5,1.4
	l4.4,1.5l4.3,1.6l4.3,1.7l4.2,1.9l4.2,2.1l4.1,2.2l4,2.4l3.9,2.5l3.9,2.6l3.8,2.8l3.7,2.8l3.7,2.9l3.7,3l3.6,3.1l3.5,3.1l3.5,3.2
	l3.4,3.2l3.4,3.3l3.3,3.3l3.2,3.4l3.1,3.5l3,3.6l3,3.6l2.9,3.7l2.8,3.8l2.7,3.8l2.7,3.8l2.7,3.9l2.6,4l2.6,3.9l2.5,3.9l2.4,3.9
	l2.3,3.9l2,3.9l1.8,3.9l1.5,3.8l1.2,3.8l0.9,3.7l0.7,3.6l0.4,3.5l0,3.4l-0.3,3.2l-0.5,3.1l-0.7,2.8l-0.9,2.7l-0.9,2.6l-1,2.5
	l-1.1,2.4L738.7,531.2"/>
<path fill-rule="evenodd" fill="#FFFFFF" d="M468.3,730.1l-2.8-3.5l-2.4-3.7l-2.1-3.9l-1.8-4.1l-1.5-4.3l-1.2-4.4l-1-4.5l-0.8-4.5
	l-0.7-4.5l-0.5-4.5l-0.4-4.4l-0.2-4.3l-0.1-4.2l0.1-4l0.2-3.9l0.5-3.8l0.5-3.7l0.5-3.6l0.4-3.5l1-6.9l0.5-3.4l0.3-3.5l0.1-3.5
	l-0.2-3.6l-0.5-3.7l-0.6-3.7l-0.7-3.8l-0.6-3.7l-0.5-3.8l-0.4-3.7l-0.1-3.5l0.2-3.3l0.7-3.2l1.2-3.1l1.7-2.8l2.1-2.7l2.5-2.6
	l2.7-2.6l2.8-2.7l2.7-2.6l2.4-2.7l2.2-2.8l1.7-2.8l1.1-2.9l0.5-2.9l-0.2-2.9l-0.9-2.8l-1.6-2.6l-2.1-2.4l-2.8-2.1l-3.2-1.7l-3.7-1.4
	l-4-1l-4.2-0.8l-4.5-0.5l-4.6-0.3l-4.7-0.2l-4.8,0l-4.8,0l-4.9,0l-4.8,0l-4.8-0.1l-4.8-0.2l-4.8-0.4l-4.7-0.6l-4.6-0.8l-4.5-1
	l-4.3-1.4l-4.1-1.6l-3.8-1.9l-3.5-2.4l-3.2-2.7l-2.8-3l-2.2-3.3l-1.8-3.5l-1.2-3.7l-0.7-3.8l-0.1-3.9l0.5-3.8l1-3.7l1.6-3.6l2.1-3.3
	l2.6-3.1l2.9-2.7l3.3-2.3l3.7-1.9l3.9-1.6l4.2-1.2l4.4-0.8l4.5-0.5l4.6-0.2l4.7-0.1l4.7,0.1l4.7,0l4.7-0.1l4.6-0.2l4.5-0.4l4.3-0.8
	l4.1-1.1l4-1.4l3.6-1.9l3.3-2.2l2.9-2.6l2.4-3l2-3.3l1.5-3.6l1-3.8l0.5-4l0.1-4.2l-0.4-4.3l-0.7-4.3l-0.9-4.4l-1.1-4.4l-1.2-4.4
	l-1.1-4.4l-1-4.5l-0.8-4.5l-0.5-4.4l-0.1-4.4l0.4-4.3l0.8-4.1l1.2-4l1.7-3.8l2.2-3.5l2.6-3.2l3-2.9l3.3-2.4l3.6-2l3.8-1.5l4-1.1
	l4.1-0.6l4.2-0.1l4.3,0.4l4.3,0.8l4.2,1.2l4.2,1.6l4.2,1.9l4.1,2.1l4.1,2.3l4,2.5l4,2.7l4,2.8l4,2.8l4,2.8l4,2.8l4,2.8l4,2.7
	l4.1,2.6l4.1,2.6l4.2,2.5l4.2,2.4l4.3,2.3l4.3,2.1l4.4,2l4.4,1.8l4.5,1.7l4.6,1.6l4.6,1.4l4.7,1.3l4.7,1.2l4.7,1.1l4.8,1l9.4,2
	l4.7,1l4.7,1.1l4.7,1.2l4.6,1.3l4.5,1.5l4.4,1.6l4.3,1.9l4.1,2.1l3.9,2.4l3.6,2.7l3.4,2.9l3,3.2l2.6,3.4l2.3,3.6l1.8,3.8l1.4,4
	l0.9,4.1l0.4,4.2l0,4.2l-0.5,4.2l-1,4.1l-1.5,4l-1.9,3.9l-2.3,3.8l-2.7,3.6l-3,3.4l-3.3,3.2l-3.5,3l-3.7,2.9l-3.9,2.7l-4.1,2.5
	l-4.1,2.4l-4.3,2.3l-4.2,2.3l-4.3,2.3l-4.3,2.3l-4.2,2.3l-4,2.4l-3.9,2.5l-3.7,2.8l-3.5,3l-3.2,3.2l-2.9,3.4l-2.5,3.6l-2.1,3.8
	l-1.7,4l-1.3,4.2L600,579l-0.4,4.4l0,4.4l0.3,4.5l0.7,4.5l1.1,4.5l1.4,4.5l1.7,4.4l1.9,4.3l2.2,4.2l2.4,4.1l2.6,4l2.8,3.9l2.9,3.8
	l3.2,3.6l3.3,3.5l3.4,3.4l3.5,3.2l3.7,3.2l3.8,3.1l3.8,3l3.9,2.9l3.9,2.9l3.9,2.9l3.9,2.9l3.9,2.9l3.7,2.9l3.6,3l3.4,3.1l3.1,3.2
	l2.7,3.4l2.3,3.4l1.8,3.5l1.3,3.6l0.7,3.6l0.1,3.5l-0.5,3.4l-1.2,3.3l-1.8,3l-2.3,2.8l-2.8,2.5l-3.3,2.2l-3.7,2.1l-4,1.7l-4.2,1.6
	l-4.4,1.4l-4.5,1.3l-4.6,1.3l-4.6,1.3l-4.6,1.3l-4.7,1.4l-4.6,1.4l-4.6,1.5l-4.6,1.5l-4.6,1.5l-4.6,1.5l-4.6,1.5l-4.6,1.4l-4.7,1.4
	l-4.7,1.2l-4.7,1.1l-4.7,1l-4.7,0.9l-4.8,0.8l-4.8,0.6l-4.9,0.6l-4.8,0.5l-4.8,0.4l-4.8,0.3l-4.9,0.3l-4.9,0.2l-4.8,0l-4.8-0.1
	l-4.8-0.2l-4.8-0.4l-4.8-0.6l-4.7-0.8l-4.7-1l-4.6-1.2l-4.6-1.4L494,748l-4.4-1.9l-4.2-2.1l-4-2.4l-3.9-2.6l-3.6-2.8l-3.3-3.1
	L468.3,730.1"/>
<path fill-rule="evenodd" fill="#FFFFFF" d="M656.1,387.9l1.3,3.9l1,4.1l0.7,4.3l0.4,4.4l0.1,4.5l0,4.5l-0.2,4.6l-0.4,4.6l-0.6,4.6
	l-0.6,4.5l-0.8,4.5l-0.9,4.6l-1,4.5l-1.1,4.5l-1.1,4.5l-1.2,4.4l-1.1,4.4l-1,4.4l-0.9,4.3l-0.8,4.2l-0.7,4.2l-0.6,4.1l-0.5,4
	l-0.4,3.8l-0.4,3.7l-0.4,3.5l-0.4,3.4l-0.6,3.3l-0.7,3.2l-0.9,3.1l-1.1,3.1l-1.1,3l-1.2,3l-1.2,3.1l-1.1,3.2l-0.9,3.4l-0.7,3.5
	l-0.4,3.6l-0.1,3.7l0.3,3.7l0.6,3.8l0.9,3.8l1.3,3.8l1.5,3.8l1.7,3.7l1.8,3.7l1.8,3.6l1.6,3.5l1.3,3.4l1.1,3.4l0.6,3.3l0.2,3.3
	l-0.3,3.3l-0.7,3.2l-1.2,3.3l-1.5,3.3l-1.7,3.2l-1.8,3.3l-1.7,3.3l-1.5,3.3l-1.2,3.3l-0.7,3.3l-0.2,3.3l0.3,3.3l0.8,3.2l1.4,3.2
	l1.8,3.2l2.1,3.2l2.3,3.1l2.5,3.2l2.5,3.2l2.4,3.3l2.2,3.4l1.8,3.5l1.4,3.6l0.9,3.7l0.4,3.7l-0.1,3.7l-0.6,3.6l-1.2,3.4l-1.7,3.2
	l-2.2,2.9l-2.6,2.6l-3,2.2L645,695l-3.6,1.2l-3.8,0.9l-4,0.4l-4.1,0l-4.2-0.4l-4.3-0.7l-4.3-1.1l-4.3-1.3l-4.3-1.3l-4.2-1.4
	l-4.3-1.3l-4.2-1.2l-4.2-1.1l-4.2-0.8l-4.2-0.4l-4.1-0.1l-4,0.4l-3.9,0.8l-3.8,1.2l-3.6,1.7l-3.4,2.2l-3.2,2.5l-3,2.9L551,701
	l-2.7,3.4l-2.6,3.5l-2.5,3.6l-5.1,7.2l-2.7,3.5l-2.8,3.3l-2.9,3.1l-3.1,2.8l-3.3,2.4l-3.5,2.1l-3.7,1.7l-3.9,1.3l-4,1l-4.1,0.6
	l-4.2,0.2l-4.2-0.2l-4.2-0.6l-4.1-1l-4-1.7l-3.8-1.7l-3.6-2.1l-3.5-2.4l-3.2-2.8l-2.9-3l-2.6-3.3l-2.3-3.5l-2-3.8l-1.6-4l-1.3-4.1
	l-1-4.2L455,698l-0.4-4.4l0-4.4l0.3-4.4l0.6-4.4l0.9-4.3l1.2-4.2l1.5-4.1l1.8-4l2.1-3.8l2.3-3.7l2.6-3.5l2.8-3.4l3-3.2l3.2-3.1
	l3.4-2.9l3.5-2.8l3.6-2.8l3.7-2.7l3.7-2.7l3.7-2.8l3.6-2.8l3.5-2.9l3.3-3l3.2-3.2l3-3.3l2.7-3.5l2.4-3.6l2-3.7l1.6-3.8l1.2-4
	l0.9-4.1l0.4-4.1l0-4l-0.5-4l-0.9-3.9l-1.4-3.7l-1.9-3.5l-2.3-3.3l-2.6-2.9l-3-2.7l-3.3-2.4l-3.6-2l-3.8-1.6l-4-1.3l-4.1-0.9
	l-4.3-0.6l-4.4-0.3l-4.4-0.1l-4.5,0.1l-4.5,0.2l-4.5,0.3l-4.6,0.4l-4.6,0.3l-4.5,0.2l-4.6,0l-4.5-0.1l-4.5-0.3l-4.4-0.6L432,547
	l-4.2-1.1l-4-1.5l-3.8-1.8l-3.5-2.2l-3.2-2.5l-2.9-2.8l-2.4-3.1l-2-3.3l-1.5-3.5l-1-3.6l-0.5-3.8l0-3.9l0.5-3.8l1-3.8l1.5-3.8
	l1.9-3.7l2.2-3.6l2.4-3.5l2.6-3.5l5.5-6.9l2.7-3.5l2.5-3.5l2.3-3.6l1.9-3.7l1.6-3.8l1.3-3.9l0.9-4l0.5-4.2l0.1-4.3l-0.2-4.3
	l-0.5-4.3l-0.7-4.4l-0.9-4.4l-1-4.4l-1-4.4l-0.9-4.4l-0.7-4.3l-0.5-4.2l-0.2-4.2l0.1-4l0.6-3.8l1-3.5l1.5-3.2l1.9-2.8l2.3-2.5l2.7-2
	l3.1-1.6l3.4-1.1l3.7-0.5l3.9-0.1l4.1,0.2l4.1,0.5l4.2,0.8l4.4,1l4.4,1.2l8.8,2.6l4.5,1.2l4.5,1.2l4.5,1.1l4.5,1l4.5,0.8l4.6,0.6
	l4.6,0.5l4.6,0.3l4.6,0.2l4.6,0l4.6-0.2l4.6-0.4l4.5-0.6l4.5-0.7l4.5-0.8l4.5-1l4.4-1.2l4.4-1.3l4.4-1.5l4.4-1.6l4.3-1.6l4.3-1.7
	l4.3-1.7l4.3-1.7l4.3-1.6l4.4-1.6l4.3-1.4l4.4-1.2l4.4-1l4.3-0.8l4.4-0.5l4.3-0.2l4.2,0.2l4,0.6l3.9,1l3.6,1.4l3.5,1.8l3.1,2.2
	l2.8,2.7l2.4,3.1l2.1,3.4L656.1,387.9"/>
<path fill-rule="evenodd" fill="#FFFFFF" d="M477.2,724.2l-1.8-2.2l-1.6-2.6l-1.5-2.9l-1.6-3.1l-1.7-3.3l-1.9-3.3l-2-3.2l-2.3-3
	l-2.6-2.7l-3-2.4l-3.2-2l-3.6-1.8l-3.8-1.6l-4-1.5l-4.1-1.4l-4.1-1.5l-4-1.6l-3.9-1.7l-3.6-2l-3.3-2.3l-3-2.6l-2.6-2.9l-2.1-3.3
	l-1.7-3.5l-1.1-3.7l-0.6-3.9l-0.1-3.9l0.4-3.9l0.9-3.9l1.4-3.8l1.9-3.7l2.3-3.4l2.7-3.2l3.1-2.9l3.3-2.7l3.6-2.5l3.7-2.4l3.9-2.3
	l4-2.3l3.9-2.3l3.9-2.3l3.7-2.5l3.5-2.7l3.1-2.9l2.7-3.1l2.4-3.3l1.9-3.5l1.5-3.7l1-3.8l0.5-3.9l0-4.1l-0.5-4l-1.1-4l-1.5-3.9
	l-1.9-3.8l-2.3-3.6l-2.7-3.5l-3-3.3l-3.3-3.1l-3.5-2.9l-3.7-2.7L440,542l-3.9-2.6l-3.9-2.6l-3.9-2.6l-3.8-2.7l-3.8-2.7l-3.6-2.9
	l-3.4-3l-3.2-3.2l-2.9-3.4l-2.6-3.6l-2.3-3.8l-1.9-4l-1.6-4.1l-1.2-4.2l-0.8-4.6l-0.4-4.4l-0.1-4.4l0.3-4.4l0.7-4.4l1.1-4.3l1.4-4.3
	l1.7-4.2l2-4.1l2.3-3.9l2.6-3.8l2.9-3.6l3-3.5l3.3-3.3l3.4-3.1l3.6-2.9l3.7-2.8l3.9-2.6l4-2.5l4.1-2.3l4.2-2.2l4.3-2l4.3-1.8
	l4.4-1.8l4.5-1.7l4.5-1.6l4.5-1.5l9.1-2.9l13.7-4l4.6-1.4l13.8-4.1l13.7-4l4.6-1.4l4.6-1.3l9.1-2.9l4.5-1.4l4.5-1.4l4.6-1.3l4.6-1.4
	l4.6-1.3l4.6-1.3l4.6-1.2l4.6-1.1l4.6-1l4.7-0.8l4.6-0.6l4.7-0.4l4.7-0.2l4.7,0l4.6,0.2l4.6,0.5l4.5,0.8l4.5,1l4.4,1.3l4.3,1.6
	l4.2,1.8l4.1,2l4,2.3l3.8,2.5l3.7,2.7l3.5,3l3.2,3.2l2.9,3.4l2.6,3.6l2.3,3.8l2,3.9l1.7,4.1l1.2,4.1l0.9,4.3l0.4,4.3l0,4.3l-0.4,4.3
	l-0.8,4.3l-1.2,4.3l-1.6,4.1l-1.9,4l-2.2,4l-2.5,3.9l-2.7,3.7l-3,3.6l-3.1,3.4l-3.3,3.3l-3.5,3.2l-3.6,3l-3.8,2.9l-3.8,2.7l-3.9,2.7
	l-4,2.6l-8.2,4.9l-4.1,2.3l-4.2,2.3l-4.2,2.3l-4.2,2.3l-4.1,2.3l-4.1,2.4l-4,2.5l-4,2.6l-3.8,2.7l-3.7,2.9l-3.5,3l-3.2,3.2l-2.9,3.4
	l-2.6,3.5l-2.2,3.7l-1.8,3.7l-1.4,3.9l-0.8,4l-0.4,4l0.1,4l0.6,4.1l1.1,4l1.5,3.9l2,3.9l2.3,3.8l2.7,3.7l2.9,3.5l3.1,3.4l3.4,3.2
	l3.5,3.2l3.7,3l3.7,2.9l3.8,2.9l3.8,2.8l3.9,2.8l3.9,2.8l3.8,2.8l3.8,2.9l3.7,2.9l3.7,3l3.5,3.1l3.4,3.2l3.3,3.3l3.2,3.5l3.1,3.5
	l3,3.6l2.9,3.8l2.8,3.8l2.7,3.9l2.7,3.9l2.7,3.9l2.6,4l2.5,4.1l2.4,4.1l2.2,4.1l2.1,4.1l1.9,4.2l1.6,4.2l1.3,4.2l0.9,4.2l0.6,4.3
	l0.2,4.2l-0.3,4.3l-0.7,4.2l-1.1,4.1l-1.5,4l-1.9,4l-2.2,3.8l-2.6,3.6l-2.9,3.4l-3.2,3.2l-3.4,2.9l-3.7,2.7l-3.8,2.3l-4,2l-4.1,1.7
	l-4.2,1.3l-4.3,1.1l-4.4,0.7l-4.5,0.5l-4.6,0.2l-4.6-0.1l-4.7-0.3l-4.6-0.5l-4.6-0.7l-4.5-0.8l-4.5-0.8l-4.5-0.8l-4.5-0.9l-4.4-0.8
	l-4.4-0.7l-4.3-0.6l-4.2-0.6l-4.1-0.5l-3.8-0.4l-3.7-0.5l-3.5-0.4l-3.2-0.5l-3.1-0.7l-2.9-0.9l-2.6-1.3l-2.3-1.6l-2.2-1.9l-2-2.2
	l-1.9-2.4l-2-2.6l-4.2-5.2l-2.2-2.5l-2.2-2.4l-2.3-2.1l-2.4-1.6l-2.6-1.1l-2.8-0.5l-2.9,0l-3.1,0.5l-3.1,0.7l-3,1l-2.9,1.1l-2.9,1.1
	l-2.9,0.9l-2.7,0.6l-2.6,0.2l-2.4-0.3l-2.2-1L477.2,724.2"/>
</svg>
