<?xml version="1.0" encoding="utf-8"?>
<!-- Generator: Adobe Illustrator 24.0.3, SVG Export Plug-In . SVG Version: 6.00 Build 0)  -->
<svg version="1.1" id="Layer_1" xmlns="http://www.w3.org/2000/svg" xmlns:xlink="http://www.w3.org/1999/xlink" x="0px" y="0px"
	 viewBox="0 0 800 800" style="enable-background:new 0 0 800 800;" xml:space="preserve">
<style type="text/css">
	.st0{fill-rule:evenodd;clip-rule:evenodd;fill:#FFFFFF;}
</style>
<path class="st0" d="M278.1,151.1c-92.2,159.3,17.6,238.1,16.1,348.5C251.3,451.3,277,394.8,232,339.9c-15.5-29.4-9.9-63.2-8.6-94.8
	C210.6,195.7,354.5,20.6,278.1,151.1"/>
<path class="st0" d="M253.8,205.9c0.7,46.1,13.6,287.2,49.4,291.6c-3.2-124.9-76-270.3,0.4-383.7
	C296.8,62.1,250.4,188.7,253.8,205.9"/>
<path class="st0" d="M323.8,160.6c20.5,104.7,41.6,254.7-27.5,338c43.5-122.1,30.2-258.8,0.3-382.9
	C302.1,71.1,323.8,146.3,323.8,160.6"/>
<path class="st0" d="M278.3,333c3.9,54.8,28.3,109.3,28.1,163.5c-13.5,12.2-23.1-10.9-19.3-22.6c-13-123.3-70.7-257.2,6.5-371.3
	c31.2-19.3-9.9,60.6-6.4,74.8C277.5,228.5,272.1,281.2,278.3,333"/>
<path class="st0" d="M295.4,131c-67.3,104.5-19,249.7,15.3,359.3c2.8,7.3-4.4,11.4-10.9,9.6c-38.2-27.1-24.9-93.1-44.4-133.7
	c-18.6-41.8-21.6-86.2-12.9-130.9c10.5-41.3,7.3-125.8,58.9-133.6C320.5,109.9,303.1,122.4,295.4,131"/>
<path class="st0" d="M252.8,238.9c-7.2,30.2,43.3,355.2,54.3,226.5c-16.6-108-66.9-247.4-0.7-344.3
	C311.6,36.5,239.4,216,252.8,238.9"/>
<path class="st0" d="M287.4,165.9c-93.3,183.5,73.7,411.6-13.9,304.2C152.5,290.4,354.2-45.3,287.4,165.9"/>
<path class="st0" d="M279.2,316c6.4,22.5-5.2,220.6,29.2,172.4c-11-113.4-5.3-228.8-0.9-342.5C297.5,8.5,266.9,280.8,279.2,316"/>
<path class="st0" d="M316.8,172c20,107.2,71.4,257.7-24.1,323.5c-14.5-14.9,14.3-39.8,13.1-59.8c37.4-107.3-8.1-217.1-18.8-324.8
	C306.5,74.8,310.6,159.5,316.8,172"/>
<path class="st0" d="M291.3,103.3c36.6-14.5-10.7,199.5-1.1,234c-2.6,52.4,21.3,116.2,12.6,162.6
	C260.2,503.2,251.2,122.4,291.3,103.3"/>
<path class="st0" d="M256.9,311.4c6.9,57.4-3.3,159.6,53.9,187.9c-25.4-108.1-39.4-224-10-333.6c4.4-19.8,25.8-64.7-8.2-66.6
	C243.6,149.2,267.5,245,256.9,311.4"/>
<path class="st0" d="M319.9,163.7c-13.6,53.7,30.9,349.4-29.2,331.8c-17.8-121.4-15.2-269.9-0.9-392.6
	C321.7,91.9,319.5,143.8,319.9,163.7"/>
<path class="st0" d="M314.1,472.5c2,35.4-34.2,33.5-34.2-0.6c-7.6-41,9.9-82.5,0-123.5c-12.9-75.6-7.5-156.2,8.2-231.1
	C343.7,32.5,308.9,440,314.1,472.5"/>
<path class="st0" d="M296.2,154.6C260.9,194,354.9,598.3,269.6,476c-20.3-40.9-9-88.9-13.6-132.9c0.1-57.8-13.3-115.7-8.4-173.4
	C251.3,112.7,336.3,55.2,296.2,154.6"/>
<path class="st0" d="M198.5,192.5c5.6,43.6-22.9,287.1,16.4,280.1c8.9-43.9,3.9-91.6,8-136.6c-4.7-110.2,100.6-101.4,178.9-83.5
	c23.8-2.5,37.9,11.4,42.3,33.7c22.3,2.7,21.6-52.1,29-69.1c-28.9-59-166.7-48.2-225.4-91.7C189,104.4,192,150.2,198.5,192.5"/>
<path class="st0" d="M309.7,498.1c-49.9-1.9-3.5-184.1-14.8-229.5c12.8-34.9-31.6-186.5,17.7-167.5
	C391.9,163.5,319.4,401.4,309.7,498.1"/>
<path class="st0" d="M319.3,238C308,207.3,351.8,83.2,295,103.5c-46.9,115.4-15.5,265.9-13.3,390.8
	C353.8,523.8,315.3,280.3,319.3,238"/>
<path class="st0" d="M326.2,149.3c2.2-20.3-8.6-59.3-35.5-46.4c-24.1,72.9-25.9,329.6,7.4,396.7C347.7,477.1,320,213.7,326.2,149.3"
	/>
<path class="st0" d="M229.1,238.6c-0.5,81.6,0.4,201.6,61.3,261c26.2,4.4,30.3-29.7,23.8-48.2c-20.1-107.7-39.4-229.7,1.8-333.9
	c5-13-6.3-20.5-18.3-16.6C255.7,130.7,237.2,189.4,229.1,238.6"/>
<path class="st0" d="M313.7,219c-26.3,39.5,61.2,355.8-27.8,257.3c-40.8-98.9-28.1-210.8-31.9-315.6
	C277.8,29.8,359.8,139.5,313.7,219"/>
<path class="st0" d="M316.5,314.9c44,189.1-62.4,280.8-61.4,49.9c17.1-84.5-12.5-196.4,52.2-262.1C359,109.3,301,269.3,316.5,314.9"
	/>
<path class="st0" d="M282.9,100.7c36.8,149.2,31.4,219.5-2.6,368.4c70.3,119.2,86.5-143,114.1-181
	C410.4,211.1,333.7,147.9,282.9,100.7"/>
<path class="st0" d="M275,267.3c-6.2,77.4,13.6,154,34.9,226.8c-42.7,18-68.5-103.2-101.1-128.1c-23.7-22.8-50.8-42.4-74.9-64.7
	c-9.8-48.4,90-126.5,121.2-167.5C358.1,24.5,272.4,221.7,275,267.3"/>
<path class="st0" d="M310.3,166.6c-14.7,97.7-14.2,198.6,3,296c22.7,51.4-36.3,43.8-53.4,9.6C137.5,278.2,335.4-46,310.3,166.6"/>
<path class="st0" d="M273.2,452.3c64,235,158.6-448.3,6.8-342.5C263.5,219.9,284.7,339.6,273.2,452.3"/>
<path class="st0" d="M294.9,182.6c-37.5,102.2-32.5,215.9,20.3,309.6c-34,26.1-157.4-54.1-159.6-102
	c-7.7-76.5,32.5-151.6,60.6-220.7C258.4,96.7,355,64.4,294.9,182.6"/>
<path class="st0" d="M249.4,418.2c-13.6,55.3,63.7,125.6,83.8,45.4c-7.1-56.6,43.3-412.8-54.4-353.8
	C243.5,206.9,248.1,315.8,249.4,418.2"/>
<path class="st0" d="M342,460.2c-4.1,61.9-59.8,40.8-78-0.9c-14.6-105.8-13.1-223.6-1.2-330.7C361.9,29,346.8,399.2,342,460.2"/>
<path class="st0" d="M334.1,454.5c-4.5,81.2-70.8,35.6-78.4-18.1c-7.8-50.9-44.3-374.7,53-330.1
	C354.3,210.9,332.1,341.6,334.1,454.5"/>
<path class="st0" d="M338.7,438.9c3.5,58.8-72.8,87.2-84.8,19.3c-1.9-107.1-12.1-219.3,14.2-324.1C372.8-10.8,344.6,389,338.7,438.9
	"/>
<path class="st0" d="M331.9,436.2c-83.8,260.9-139.2-324.1-38.1-332.5C362.9,63.2,328.8,398.1,331.9,436.2"/>
<path class="st0" d="M275.7,459.1c6.5,184.3,244.6-339.1,22.6-358.6C241.5,146.3,312.5,364.3,275.7,459.1"/>
<path class="st0" d="M314.1,440.8C334,648.4,41.5,255.7,273.3,114.1C374.2,28.8,255.6,338.4,314.1,440.8"/>
<path class="st0" d="M293,151.6c78,154.1-58.2,367.6,15.5,346.6C653.9,289.4,226.8-25.7,293,151.6"/>
<path class="st0" d="M244.8,155c-35.2,80.6-103,180.9-25.6,260.5c14.9,20.1,100.6,132.8,96.9,57.5c-5.8-71.6-13-143.5-2.5-215
	C317.7,190.7,334.2,9.5,244.8,155"/>
<path class="st0" d="M269.5,386.8c2.1,36,1.6,74.4,14.9,108.3c35,16.2,111.4-11.9,98.4-61.4c-16.2-94.3,3.2-188.3,11-281.9
	c-4.4-30.1-69.5-45.4-97.1-51.6C234.5,121.9,281.6,322.8,269.5,386.8"/>
<path class="st0" d="M267,190.9c6.5,82.6-73.1,389.9,95.8,283.9c63.1-104.4-5.1-265.8-56.9-363.9C251.8,74.2,254.1,158.9,267,190.9"
	/>
<path class="st0" d="M365.6,421c5.6,53.7-65.4,119.4-91.4,45.1c-23.7-110.6-14.7-232-7.8-343.5C305.5,46,381.6,239.4,383.5,276.2
	C387.2,325.1,372,373,365.6,421"/>
<path class="st0" d="M346,424.8c-96,248.9-122.7-176.2-97.8-248.1C350.9-61.8,386.6,345.5,346,424.8"/>
<path class="st0" d="M389.7,213.5c123.6,89.4-39.5,359.8-112.3,262.7c6.8-31.2,3.4-62.9,1.2-94.4c1.9-63-9.5-243.6,27-280
	C335.3,137.1,360.9,177.1,389.7,213.5"/>
<path class="st0" d="M325.2,482.9c-170.5,74.6-176.9-341.2-36.1-382.4c86.1-5.4,25.5,122.5,24.7,169
	C315,340.5,351.9,412.8,325.2,482.9"/>
<path class="st0" d="M370.2,254.6c82.1,178.2-127.7,397-122,94.1C225.9,173,290.4-58.3,370.2,254.6"/>
<path class="st0" d="M229.9,230.3c-21,65.9-79.3,150.5-42.4,217.5c34.7,37.8,100,69.3,148.8,42.2c42.8-82.7-6.5-217.3-8.5-308.9
	C312.6,8.8,256.3,159,229.9,230.3"/>
<path class="st0" d="M229.9,163.4c9.5,103.9-22.4,220.3,19.2,317.4c159.6,130.2,145-534.7,2.8-343"/>
<path class="st0" d="M365.1,153.7c92.2,59.3,34.6,116.7,17.2,200.8c-18.6,45.7-51.1,204.7-116.6,120.9
	C259,401.1,207.1-43.1,365.1,153.7"/>
<path class="st0" d="M237.2,389.7c-4.4,45.8,24.3,156.5,79.9,87.1c66.5-99.9,60.4-254.8,23.2-364.4
	C204.3,72.9,230.2,306.4,237.2,389.7"/>
<path class="st0" d="M227,120c-116.7-21.9,81.9,378.7,133.4,371c54.9-48.3,5.1-225.1,25.4-306.7C412.4,75.5,292.3,113.2,227,120"/>
<path class="st0" d="M357.5,393.4c11.2,52.8-40.3,146.7-94.9,88.8c-33.9-102.7-64.9-292.6,14.7-376.9
	C400.1,64.5,357.3,327.7,357.5,393.4"/>
<path class="st0" d="M352.5,155c-49.3-130.9-138.8-5.3-118.3,83c11.6,50.6-32.3,269.8,36.5,260.1c105.6,17.9,103.7-40.6,100.2-125.6
	C374.8,299.8,372.8,225.3,352.5,155"/>
<path class="st0" d="M187.7,342.9C82.2,490.8,271.9,477.5,370.9,486.2c49.4-8.5-24.9-170.9,5.4-233.1c7.1-50.4,44.4-146.4-35.4-148
	C244,125.8,246.4,273.9,187.7,342.9"/>
<path class="st0" d="M359.4,359.3C377.6,654.2,6.3,452,319.2,105.2C409.8,93.4,333.3,300.7,359.4,359.3"/>
<path class="st0" d="M357.7,249.4c60.1,94.4-18.6,363.3-126.7,193.5C178.5,317.4,299.5-122.4,357.7,249.4"/>
<path class="st0" d="M257.5,287.3c8-45.7,7.4-92.8,16.7-138.1c30.7-87.4,102-34.1,119.1,30.6c7.3,76.4,28.4,158.8,25.5,235
	c-19.6,61.4-91.4,89.4-151.4,82.3c-8.3-0.9-13.8-5.9-11.2-14.6C263,417.7,251.6,352.2,257.5,287.3"/>
<path class="st0" d="M386.4,214.2c38.8,72.3,8.2,120.5-29.4,184.1c-26.1,29-62.1,140.6-107.8,82c-20.2-94.4-33.5-265.1,27.6-345
	C346.1,48.9,358.9,163.6,386.4,214.2"/>
<path class="st0" d="M210,192.5c-56.6,27.5-95,84.9-46.4,139.9c32.3,63.8,56.7,189.1,153.5,162.7c42.1-40.3,14.1-120.1,23.7-174.3
	c-9-45.3,32-255.4-55.4-211.2C266.2,142.5,243,172,210,192.5"/>
<path class="st0" d="M220.6,290.4c-16-75.1,20.1-236.7,123.9-175.9c50.3,65.2,12.6,155,23,230c3.2,36.2,8.5,74.7-6.4,109.1
	c-13,35.1-55.1,55-90.4,42.3C197.6,461.5,239.4,355.6,220.6,290.4"/>
<path class="st0" d="M354.2,137.3c155.7,75.2,135.1,380.5-60.7,359.5c-38-70.5-1.9-253.5-11.8-341.2
	C259.8,74.5,313.2,101.8,354.2,137.3"/>
<path class="st0" d="M357.8,336.3c-9.4,50,17.7,154-49.4,163.8c-139.8-13.9-103.5-222.8-94-321.9c9.9-53.7,76.9-105,124.3-60.2
	C366.9,184.7,352.2,264.9,357.8,336.3"/>
<path class="st0" d="M355.1,403.6c-16.8,222.5-246.2,40.3-131-220.9C381.2-61.8,353.9,297.8,355.1,403.6"/>
<path class="st0" d="M232.7,123c-115.7,63.7-19,227.8,8.8,321.2c78.5,168,135.4-84,110.6-158.9C348.8,180.2,397.1,47.2,232.7,123"/>
<path class="st0" d="M160,295.7c-44.8,92.2,19.2,155.7,107.6,181.8c30.5,5,79.2,44.3,87.8-8.1c-19.8-100.1-33.3-199.3-0.2-298
	C263.5,3.3,175,189.2,160,295.7"/>
<path class="st0" d="M337.4,444.1c-8.5,146.4-216.9-30.4-208.6-102.4C145.1,274.5,338.5-42.4,336,180.3
	C334.4,268,337,356.3,337.4,444.1"/>
<path class="st0" d="M354,121.4c20.7,96.7,56.8,371.4-84.5,371.9c-86.4-51.2-52.8-187.8-53-273.7C207,144.2,289.1,49.3,354,121.4"/>
<path class="st0" d="M425.1,278.5c1.1,88.8-51.9,182.8-133.6,220.2c-61-3.3-27.6-117-40-160C214.9,103.4,371.5-8.2,425.1,278.5"/>
<path class="st0" d="M348.9,199.5c-17.7,70.5,55.7,342-75.5,294.3C-0.4,251.2,356.9-72.5,348.9,199.5"/>
<path class="st0" d="M203.5,288.1c-36.5,97.8,16.4,187.8,117.4,208.8c122.8-5.3,21.5-185.9,58-261.5
	c21.1-74.8-29.9-111.1-96.6-127.9c-10.6-3.8-26.3-7.7-32,5.5C231.5,170.2,221.5,230.6,203.5,288.1"/>
<path class="st0" d="M166.1,248.5c40.4-55.1,95.7-218.3,175.9-116c33.4,73.4-3.9,158.4,4.3,236.3c-7.1,40.5,41.6,137.8-32.6,126.8
	c-65.7-15.1-128.3-46.4-181.1-87.9C116.3,393,155.3,272.1,166.1,248.5"/>
<path class="st0" d="M358.8,491.2c-1.2-93.3,47.7-183.4,28.2-277.2c-5.5-96.4-154.7-159.3-197-55c-22.1,72.6-4.5,262.6,97.9,261.3"
	/>
<path class="st0" d="M213.7,223.7c17,88.2,32.7,188.7,102.3,252.1c104.6,94.2,89.9-255.3,95.4-308.7
	C357.5,83.8,144.3,68.6,213.7,223.7"/>
<path class="st0" d="M376.1,419.3c10.6,112.1-83.4,84.4-131.3,21.9c-78.5-96.3-82-464.8,109.8-293.9
	C401.4,220.5,348.7,330.3,376.1,419.3"/>
<path class="st0" d="M358.1,163.3c-15.6-173.4-205.8,52.1-251.9,107.8c-14.4,70.3,134.1,216.9,203,228.8c19.8-0.6,42.3-10.7,49-30.6
	C342.6,369.6,350.8,264.9,358.1,163.3"/>
<path class="st0" d="M376.5,125.2c26.4-9.3,31.4,11.2,30.1,32.9c-13.8,75.7,28.3,276.1-17.8,314C283.8,468.3,163,337,122.2,249
	C100.8,145.2,307.6,163.3,376.5,125.2"/>
<path class="st0" d="M381.1,339.1c29.6,118.4-121,242.5-168.8,86.4C160.5,156.6,404.7-98.2,381.1,339.1"/>
<path class="st0" d="M398.7,368.3c4.3,144.9-182.6,182.6-165.2,8.5c7.5-87.2-26.7-209.5,50.6-271.6c55.1-21.2,100.9,30.1,109.4,81
	C406.4,245.6,401.2,308.1,398.7,368.3"/>
<path class="st0" d="M391.9,341.2c7.3,73-52.7,138.6-120.6,155.8c-147.1-51.3-35.2-250.2-1.3-350C390.8-8.6,393.5,264.4,391.9,341.2
	"/>
<path class="st0" d="M449.2,205c76.5,140.8,28.7,244.8-124.6,285.2c-19.9,8.3-56.3,19.5-57.3-13.7c10.5-81.2-0.5-163,0.1-244.5
	c1.5-42.5,5.8-87.1,23.3-126.3C349.2,92.2,416.5,158.2,449.2,205"/>
<path class="st0" d="M377.3,397.4c13.3,90.8-170.2,144.4-177.5,34.4c-9.2-114.7-29.1-349.1,142.8-325.6c32.3,0,36.3,16.8,36.2,45.2
	C374.7,233.2,382,315.6,377.3,397.4"/>
<path class="st0" d="M280.1,158.2c-37.1-48-112.2-42.6-118.8,24.9c-0.4,81.1,37.2,164-0.7,243.1c39.6,96,220.9,24.5,291.7-7.1
	C538.3,349.1,324.9,216.4,280.1,158.2"/>
<path class="st0" d="M371,227.1c45.9,400.9-195.5,315.7-187.1-16.9C178.8,59.8,419.4,59.6,371,227.1"/>
<path class="st0" d="M382.5,464.4c95-85.7,16.8-100.9,59.7-190.7c23.3-56.2-30-89.1-69.2-117.2c-25.1-17.5-38.8-54.9-73.4-55.2
	c-102.1,2.3-49,156.5-60.3,223C217.4,435.6,259.9,572,382.5,464.4"/>
<path class="st0" d="M409.8,149c77.9-5.2,9.5,107.7,0.2,144c-0.7,252-123,272.3-220.2,44.1C54.6,94.6,240.7,155.1,409.8,149"/>
<path class="st0" d="M244.1,439.3c71.6,208.5,219.1-188.5,169.6-271C218.7-56.2,192.3,299.7,244.1,439.3"/>
<path class="st0" d="M341.4,163.8c-68.8-202-220,158.9-166.5,238.3C364.6,664.1,404.1,317.6,341.4,163.8"/>
<path class="st0" d="M376.8,229.3C389.7,18.9,216.5,104.5,198,254.9c-52.6,108.8,79.3,365.9,168.3,179.7
	C384.8,368.1,376.1,297.4,376.8,229.3"/>
<path class="st0" d="M372.3,149.5c118.3,60.1,39.6,248.3-4.8,336.3C239.5,569.7,100.6-68.6,372.3,149.5"/>
<path class="st0" d="M268.4,113.6C56.1,315.7,357.8,769.5,385.2,290.2C380.2,224.7,371.5,50.6,268.4,113.6"/>
<path class="st0" d="M204.7,425.5c-39.8-53.6-151.6-168.1-60.4-217.9c61.4-30.9,122.4-91.9,190.1-102.8
	c91,19.9,25.4,248.4,44.2,326.8C391.7,547,247.2,467.2,204.7,425.5"/>
<path class="st0" d="M374.8,347.3C338.5,712.6,64,336.6,231.1,161.6C362.7-11,386.5,245.3,374.8,347.3"/>
<path class="st0" d="M226.4,250.9C154.3,484.5,421.2,622.1,437.1,329C430.9,187.4,165.8-43.6,226.4,250.9"/>
<path class="st0" d="M389.6,273.4c9.9,150.4,40.7,278.8-154.7,177.1c-44.4-22.9-125.9-26.8-119.2-93.3
	C137.3,202.5,452.5-71,389.6,273.4"/>
<path class="st0" d="M408.9,199c-308-407.8-191.5,621.1-6.7,193.2C429.3,323.5,451.6,267.3,408.9,199"/>
<path class="st0" d="M375.1,345.9c-23.5,393.6-324.3-47.1-145.2-212.1C374.3,12.8,384.7,250.2,375.1,345.9"/>
<path class="st0" d="M340.1,200.3c115.8,42.6,86.9,178.9,56.7,271.2c-186.5,94.9-221.5-128.8-203.1-266.2
	C176.3,53.9,281.2,141.2,340.1,200.3"/>
<path class="st0" d="M173.2,385.7c-9.4-124.4,93.7-192.3,196.1-235.2c36.7-25.1,61.5-16.1,60.4,30.3c-0.5,90.5,10.5,187.2-5,275.4
	C357.8,480.5,126.4,520.1,173.2,385.7"/>
<path class="st0" d="M403.5,355.8c5.8,163.7-198.4,204.2-194.4,17C169.5,254,264.9-30.4,387.2,165
	C409,225.5,406.5,292.5,403.5,355.8"/>
<path class="st0" d="M260.4,483.3c29.3,9.9,72.8,27.9,96.7-0.5c41.7-102,67.7-293.1-44-362.4C158.9,29.8,145.6,445,260.4,483.3"/>
<path class="st0" d="M263,127.2c-102.5,17.3-65.1,206.4-45.4,280.7c155.9,314.6,301.8-285,72.6-308.1"/>
<path class="st0" d="M389.2,260.9c22.2-116.3-114.3-236.3-181.4-95.3c-25.3,69.8-103.8,123.8-94.5,203.1
	c22.8,68.3,204,141.8,265.8,112.5C402,413.5,380.5,332.9,389.2,260.9"/>
<path class="st0" d="M225.3,304.5c-26.6,176.9,98.5,283.1,202.1,99.7C507.3,158.9,194.2-88.2,225.3,304.5"/>
<path class="st0" d="M448.8,239.3c-89.3-67.9-304.6-228.5-274.5,2.7c10,98.8-50.5,295.6,121,216.8
	C381.6,434.9,591.2,329.4,448.8,239.3"/>
<path class="st0" d="M370.8,182.5c-7,67.5,5.2,135.4-0.2,202.8c-28.7,185.5-197.4,100.4-240-29.5C43.8,251.4,388.3-35.5,370.8,182.5
	"/>
<path class="st0" d="M440.3,360.7c-23.1,66.6-198.8,210.4-219.4,83c11.8-92-17.7-213.6,10.8-298.3C371.7,6.3,528,218.5,440.3,360.7"
	/>
<path class="st0" d="M259.7,489.4c207.8,59.4,184.1-276.4,82.7-371.7C181,31.5,150.3,436.7,259.7,489.4"/>
<path class="st0" d="M313.5,103.3c128.7,50.1,120.3,293,42.1,383.3C151.7,582.4,125.4,74.4,313.5,103.3"/>
<path class="st0" d="M254.7,105.9c-88.1,101.8-96.7,391,84.9,390.5C500.3,425.8,415.6,111.7,254.7,105.9"/>
<path class="st0" d="M338.2,483.5c100.6,22.3,85.7-295.3,44.7-357.8C164,12.1,42.5,582.3,318.8,475.9"/>
<path class="st0" d="M374.8,448.2C290.2,619.6,58.9,309.5,221.5,132.3C394.1,1.8,418.5,344.3,374.8,448.2"/>
<path class="st0" d="M182.3,179.1c-54.9,309.7,86,446.8,241.4,98.5c15.1-30.3,16.6-66.1,2.3-97C398.5,68.5,222.5,86.6,182.3,179.1"
	/>
<path class="st0" d="M307.5,499.9c-162.7-21.5-162.4-302.5-54.3-388C451.2,32.9,471.7,479.6,307.5,499.9"/>
<path class="st0" d="M388.8,447.2C236.6,629.5,158.4,298.8,206.3,184.8c38.3-156.3,227.6-67.6,221.5,62
	C433.5,314.5,422.1,387.4,388.8,447.2"/>
<path class="st0" d="M359.7,135.1c57.2-28.1,50.7,93.3,52.5,128.2c-56.8,579.6-543.7-107.5-62-156.8"/>
<path class="st0" d="M288.7,499.7c-151.1-27.7-152.6-259-67.9-355.3C432.5-55.2,493.2,501.6,288.7,499.7"/>
<path class="st0" d="M427.3,291.3c1.3-59.4-12.3-126.3-61.4-164.8C-46.6-27.3,330.1,915.4,427.3,291.3"/>
<path class="st0" d="M265.1,103.7C112.3,166.9,141,501.5,322.8,498.1C478.9,448.7,476,49.4,265.1,103.7"/>
<path class="st0" d="M409.5,242.7C444,10.1,95.8,92.7,140.2,278.6C149.5,589.7,471,551.2,409.5,242.7"/>
<path class="st0" d="M178.2,276.9c-10.1-97,61.4-205.7,168.6-170.7C643.6,250.6,211.9,769.8,178.6,322"/>
<path class="st0" d="M311.4,489.7c-246.3,49.9-196.9-385.5,12.4-383.6C464.4,137.5,451.2,444.2,311.4,489.7"/>
<path class="st0" d="M400.8,156.5C218.9-36.7,112.4,308.6,183.4,449.4C376.4,629.7,538.5,313.7,400.8,156.5"/>
<path class="st0" d="M184,391.3c29.5,159.7,232.8,119.5,268.4-14.6c68.9-143.2-132.6-399-245.5-210.2
	C174.6,235,166.4,317.7,184,391.3"/>
<path class="st0" d="M176.6,219.7c-30.7,153,47.7,379.9,225,230C683.5,287.5,255-96.4,176.6,219.7"/>
<path class="st0" d="M422.1,246.1c104.8,337.3-359.3,324.3-299.5,12c49.7-168.6,246.1-217.7,302-24.5"/>
<path class="st0" d="M207.1,464.3C485.2,658.9,544.5,37.9,264.6,110C107.2,169.4,28.3,375.4,207.1,464.3"/>
<path class="st0" d="M136.1,242.2c-2.7-173.2,269-164.3,318.2-31.5C605.9,550.3,91.6,596.8,136.1,242.2"/>
</svg>
