<?xml version="1.0" encoding="UTF-8"?>
<svg xmlns="http://www.w3.org/2000/svg" xmlns:xlink="http://www.w3.org/1999/xlink" width="800pt" height="800pt" viewBox="0 0 800 800" version="1.1">
<g id="surface1">
<rect x="0" y="0" width="800" height="800" style="fill:rgb(23.529412%,23.529412%,23.529412%);fill-opacity:1;stroke:none;"/>
<path style=" stroke:none;fill-rule:evenodd;fill:rgb(100%,100%,100%);fill-opacity:1;" d="M 609.953125 400.246094 L 604.910156 762.398438 L 601.0625 799.996094 L 590.046875 400.246094 "/>
<path style=" stroke:none;fill-rule:evenodd;fill:rgb(100%,100%,100%);fill-opacity:1;" d="M 552.574219 447.171875 L 601.265625 400.003906 L 601.265625 756.578125 L 598.734375 799.996094 "/>
<path style=" stroke:none;fill-rule:evenodd;fill:rgb(100%,100%,100%);fill-opacity:1;" d="M 577.207031 423.417969 L 614.71875 400.542969 L 614.71875 778.300781 L 585.28125 799.457031 "/>
<path style=" stroke:none;fill-rule:evenodd;fill:rgb(100%,100%,100%);fill-opacity:1;" d="M 612.941406 774.703125 L 587.058594 799.582031 L 563.683594 416.390625 L 612.941406 400.417969 "/>
<path style=" stroke:none;fill-rule:evenodd;fill:rgb(100%,100%,100%);fill-opacity:1;" d="M 600 400 L 600 800 L 450.566406 713.054688 L 492.023438 712.589844 "/>
<path style=" stroke:none;fill-rule:evenodd;fill:rgb(100%,100%,100%);fill-opacity:1;" d="M 580.472656 400.957031 L 619.527344 406.011719 L 619.527344 799.042969 L 553.214844 781.105469 "/>
<path style=" stroke:none;fill-rule:evenodd;fill:rgb(100%,100%,100%);fill-opacity:1;" d="M 600 800 L 557.226562 780.851562 L 535.863281 440.703125 L 600 400 "/>
<path style=" stroke:none;fill-rule:evenodd;fill:rgb(100%,100%,100%);fill-opacity:1;" d="M 622.523438 401.273438 L 622.523438 790.5625 L 577.476562 798.726562 L 560.394531 420.90625 "/>
<path style=" stroke:none;fill-rule:evenodd;fill:rgb(100%,100%,100%);fill-opacity:1;" d="M 587.394531 400.398438 L 660.242188 409.289062 L 641.335938 795.371094 L 587.394531 799.601562 "/>
<path style=" stroke:none;fill-rule:evenodd;fill:rgb(100%,100%,100%);fill-opacity:1;" d="M 605.84375 435.652344 L 641.148438 795.722656 L 558.851562 786.957031 L 558.851562 404.277344 "/>
<path style=" stroke:none;fill-rule:evenodd;fill:rgb(100%,100%,100%);fill-opacity:1;" d="M 633.8125 797.121094 L 565.246094 771.136719 L 566.1875 402.878906 L 633.8125 417.75 "/>
<path style=" stroke:none;fill-rule:evenodd;fill:rgb(100%,100%,100%);fill-opacity:1;" d="M 608.078125 400.164062 L 608.078125 799.835938 L 547.242188 792.914062 L 522.96875 428.027344 "/>
<path style=" stroke:none;fill-rule:evenodd;fill:rgb(100%,100%,100%);fill-opacity:1;" d="M 548.027344 406.871094 L 616.683594 400.695312 L 616.683594 799.304688 L 534.667969 781.578125 "/>
<path style=" stroke:none;fill-rule:evenodd;fill:rgb(100%,100%,100%);fill-opacity:1;" d="M 551.40625 405.992188 L 648.59375 405.992188 L 640.324219 795.890625 L 564.308594 765.554688 "/>
<path style=" stroke:none;fill-rule:evenodd;fill:rgb(100%,100%,100%);fill-opacity:1;" d="M 620.503906 426.726562 L 620.503906 798.945312 L 499.253906 674.113281 L 579.496094 401.054688 "/>
<path style=" stroke:none;fill-rule:evenodd;fill:rgb(100%,100%,100%);fill-opacity:1;" d="M 628.996094 402.113281 L 681.242188 762.957031 L 571.003906 797.886719 L 571.003906 454.292969 "/>
<path style=" stroke:none;fill-rule:evenodd;fill:rgb(100%,100%,100%);fill-opacity:1;" d="M 678.953125 416.242188 L 656.277344 791.917969 L 576.085938 638.742188 L 521.046875 416.242188 "/>
<path style=" stroke:none;fill-rule:evenodd;fill:rgb(100%,100%,100%);fill-opacity:1;" d="M 586.082031 425.355469 L 657.277344 408.375 L 657.277344 775.183594 L 542.722656 791.625 "/>
<path style=" stroke:none;fill-rule:evenodd;fill:rgb(100%,100%,100%);fill-opacity:1;" d="M 656.4375 408.128906 L 657.613281 785.71875 L 561.554688 796.269531 L 561.554688 403.730469 "/>
<path style=" stroke:none;fill-rule:evenodd;fill:rgb(100%,100%,100%);fill-opacity:1;" d="M 575.597656 401.496094 L 624.402344 538.058594 L 624.402344 798.503906 L 480.898438 723.292969 "/>
<path style=" stroke:none;fill-rule:evenodd;fill:rgb(100%,100%,100%);fill-opacity:1;" d="M 539.769531 420.03125 L 643.894531 404.875 L 643.894531 795.125 L 537.539062 789.996094 "/>
<path style=" stroke:none;fill-rule:evenodd;fill:rgb(100%,100%,100%);fill-opacity:1;" d="M 643.921875 404.882812 L 643.921875 795.117188 L 535.949219 789.464844 L 536.496094 413.890625 "/>
<path style=" stroke:none;fill-rule:evenodd;fill:rgb(100%,100%,100%);fill-opacity:1;" d="M 643.359375 795.242188 L 528.808594 786.898438 L 530.847656 413.175781 L 643.359375 404.757812 "/>
<path style=" stroke:none;fill-rule:evenodd;fill:rgb(100%,100%,100%);fill-opacity:1;" d="M 489.386719 433.375 L 712.980469 434.96875 L 612.796875 616.238281 L 489.386719 766.628906 "/>
<path style=" stroke:none;fill-rule:evenodd;fill:rgb(100%,100%,100%);fill-opacity:1;" d="M 665.964844 411.191406 L 660.613281 790.59375 L 558.105469 781.59375 L 534.035156 411.191406 "/>
<path style=" stroke:none;fill-rule:evenodd;fill:rgb(100%,100%,100%);fill-opacity:1;" d="M 497.3125 428.375 L 702.6875 428.375 L 585.304688 799.460938 L 532.710938 771.246094 "/>
<path style=" stroke:none;fill-rule:evenodd;fill:rgb(100%,100%,100%);fill-opacity:1;" d="M 676.046875 784.976562 L 523.953125 784.976562 L 539.457031 409.382812 L 636.972656 446.34375 "/>
<path style=" stroke:none;fill-rule:evenodd;fill:rgb(100%,100%,100%);fill-opacity:1;" d="M 676.789062 614.488281 L 528.339844 786.722656 L 528.339844 416.15625 L 671.660156 413.277344 "/>
<path style=" stroke:none;fill-rule:evenodd;fill:rgb(100%,100%,100%);fill-opacity:1;" d="M 651.878906 415.222656 L 728.945312 752.882812 L 561.78125 796.3125 L 561.78125 403.6875 "/>
<path style=" stroke:none;fill-rule:evenodd;fill:rgb(100%,100%,100%);fill-opacity:1;" d="M 524.800781 490.539062 L 644.054688 404.914062 L 644.054688 795.085938 L 472.675781 754.234375 "/>
<path style=" stroke:none;fill-rule:evenodd;fill:rgb(100%,100%,100%);fill-opacity:1;" d="M 672.742188 413.699219 L 671.128906 786.738281 L 529.992188 787.347656 L 529.992188 412.652344 "/>
<path style=" stroke:none;fill-rule:evenodd;fill:rgb(100%,100%,100%);fill-opacity:1;" d="M 706.210938 769.46875 L 553.15625 794.4375 L 553.15625 405.5625 L 691.636719 425.457031 "/>
<path style=" stroke:none;fill-rule:evenodd;fill:rgb(100%,100%,100%);fill-opacity:1;" d="M 677.957031 430.511719 L 679.421875 783.554688 L 533.441406 788.597656 L 533.441406 411.402344 "/>
<path style=" stroke:none;fill-rule:evenodd;fill:rgb(100%,100%,100%);fill-opacity:1;" d="M 650.570312 406.5 L 650.570312 793.5 L 486.484375 652.347656 L 443.464844 475.511719 "/>
<path style=" stroke:none;fill-rule:evenodd;fill:rgb(100%,100%,100%);fill-opacity:1;" d="M 681.605469 438.144531 L 680.082031 783.265625 L 547.144531 783.265625 L 519.917969 416.734375 "/>
<path style=" stroke:none;fill-rule:evenodd;fill:rgb(100%,100%,100%);fill-opacity:1;" d="M 689.21875 421.003906 L 689.921875 757.183594 L 537.183594 789.878906 L 537.183594 410.121094 "/>
<path style=" stroke:none;fill-rule:evenodd;fill:rgb(100%,100%,100%);fill-opacity:1;" d="M 519.023438 433.539062 L 666.132812 411.25 L 666.132812 788.75 L 497.265625 771.597656 "/>
<path style=" stroke:none;fill-rule:evenodd;fill:rgb(100%,100%,100%);fill-opacity:1;" d="M 789.441406 636.320312 L 770.828125 704.003906 L 485.867188 764.234375 L 485.867188 435.765625 "/>
<path style=" stroke:none;fill-rule:evenodd;fill:rgb(100%,100%,100%);fill-opacity:1;" d="M 720.199219 759.851562 L 479.800781 759.851562 L 526.738281 473.765625 L 655.015625 407.714844 "/>
<path style=" stroke:none;fill-rule:evenodd;fill:rgb(100%,100%,100%);fill-opacity:1;" d="M 503.070312 425.058594 L 670.902344 505.347656 L 696.929688 774.941406 L 503.070312 770.617188 "/>
<path style=" stroke:none;fill-rule:evenodd;fill:rgb(100%,100%,100%);fill-opacity:1;" d="M 694.796875 753.660156 L 521.105469 783.78125 L 521.105469 416.21875 L 701.757812 427.820312 "/>
<path style=" stroke:none;fill-rule:evenodd;fill:rgb(100%,100%,100%);fill-opacity:1;" d="M 718.375 440.753906 L 718.375 761.207031 L 536.085938 666.15625 L 481.625 438.792969 "/>
<path style=" stroke:none;fill-rule:evenodd;fill:rgb(100%,100%,100%);fill-opacity:1;" d="M 784.679688 523.230469 L 765.820312 635.835938 L 476.808594 757.554688 L 476.808594 442.445312 "/>
<path style=" stroke:none;fill-rule:evenodd;fill:rgb(100%,100%,100%);fill-opacity:1;" d="M 684.949219 437.558594 L 697.515625 774.617188 L 502.484375 771.914062 L 502.484375 425.382812 "/>
<path style=" stroke:none;fill-rule:evenodd;fill:rgb(100%,100%,100%);fill-opacity:1;" d="M 697.78125 774.46875 L 502.21875 774.46875 L 505.902344 441.679688 L 693.015625 422.945312 "/>
<path style=" stroke:none;fill-rule:evenodd;fill:rgb(100%,100%,100%);fill-opacity:1;" d="M 459.851562 457.316406 L 672.582031 413.636719 L 672.582031 786.363281 L 489.390625 756.390625 "/>
<path style=" stroke:none;fill-rule:evenodd;fill:rgb(100%,100%,100%);fill-opacity:1;" d="M 638.53125 427.527344 L 721.519531 758.847656 L 478.480469 747.699219 L 478.480469 441.152344 "/>
<path style=" stroke:none;fill-rule:evenodd;fill:rgb(100%,100%,100%);fill-opacity:1;" d="M 724.371094 443.371094 L 724.332031 756.660156 L 556.640625 794.265625 L 475.628906 443.371094 "/>
<path style=" stroke:none;fill-rule:evenodd;fill:rgb(100%,100%,100%);fill-opacity:1;" d="M 498.902344 427.433594 L 701.097656 430.773438 L 701.097656 772.566406 L 503.796875 747.664062 "/>
<path style=" stroke:none;fill-rule:evenodd;fill:rgb(100%,100%,100%);fill-opacity:1;" d="M 507.015625 433.0625 L 691.203125 422.007812 L 691.203125 777.992188 L 404.34375 641.449219 "/>
<path style=" stroke:none;fill-rule:evenodd;fill:rgb(100%,100%,100%);fill-opacity:1;" d="M 726.070312 755.261719 L 511.292969 779.25 L 511.292969 420.75 L 713.90625 439.972656 "/>
<path style=" stroke:none;fill-rule:evenodd;fill:rgb(100%,100%,100%);fill-opacity:1;" d="M 493.648438 430.621094 L 687.960938 430.621094 L 706.351562 769.378906 L 484.476562 738.976562 "/>
<path style=" stroke:none;fill-rule:evenodd;fill:rgb(100%,100%,100%);fill-opacity:1;" d="M 744.261719 471.035156 L 713.230469 764.859375 L 501.699219 774.175781 L 501.699219 425.824219 "/>
<path style=" stroke:none;fill-rule:evenodd;fill:rgb(100%,100%,100%);fill-opacity:1;" d="M 492.84375 431.128906 L 716.023438 457.105469 L 715.492188 763.28125 L 492.84375 768.871094 "/>
<path style=" stroke:none;fill-rule:evenodd;fill:rgb(100%,100%,100%);fill-opacity:1;" d="M 476.863281 452.226562 L 712.890625 434.90625 L 706.347656 765.09375 L 487.109375 765.09375 "/>
<path style=" stroke:none;fill-rule:evenodd;fill:rgb(100%,100%,100%);fill-opacity:1;" d="M 730.214844 751.800781 L 469.785156 739.101562 L 469.785156 448.199219 L 703.960938 451.371094 "/>
<path style=" stroke:none;fill-rule:evenodd;fill:rgb(100%,100%,100%);fill-opacity:1;" d="M 727.039062 445.527344 L 727.039062 732.992188 L 472.960938 754.472656 L 482.703125 449.992188 "/>
<path style=" stroke:none;fill-rule:evenodd;fill:rgb(100%,100%,100%);fill-opacity:1;" d="M 497.324219 428.367188 L 736.960938 474.660156 L 748.183594 734.320312 L 451.816406 734.320312 "/>
<path style=" stroke:none;fill-rule:evenodd;fill:rgb(100%,100%,100%);fill-opacity:1;" d="M 733.753906 743.394531 L 466.246094 748.695312 L 486.449219 442.023438 L 733.753906 451.304688 "/>
<path style=" stroke:none;fill-rule:evenodd;fill:rgb(100%,100%,100%);fill-opacity:1;" d="M 732.84375 735.582031 L 467.15625 749.507812 L 470.128906 476.453125 L 732.84375 450.492188 "/>
<path style=" stroke:none;fill-rule:evenodd;fill:rgb(100%,100%,100%);fill-opacity:1;" d="M 463.964844 453.390625 L 736.035156 454.628906 L 736.035156 746.609375 L 473.375 734.949219 "/>
<path style=" stroke:none;fill-rule:evenodd;fill:rgb(100%,100%,100%);fill-opacity:1;" d="M 459.523438 469.625 L 733.566406 451.136719 L 733.566406 748.863281 L 465.414062 747.941406 "/>
<path style=" stroke:none;fill-rule:evenodd;fill:rgb(100%,100%,100%);fill-opacity:1;" d="M 464.992188 452.441406 L 745.828125 463.128906 L 736.742188 734.261719 L 464.992188 747.558594 "/>
</g>
</svg>
