<svg viewBox="0 0 40 40" fill="none" xmlns="http://www.w3.org/2000/svg">
<circle cx="20" cy="20" r="20" fill="black"/>
<path fill-rule="evenodd" clip-rule="evenodd" d="M20.0015 8C16.742 8 16.3333 8.01382 15.0533 8.07222C13.7758 8.13049 12.9034 8.33338 12.14 8.63008C11.3508 8.93674 10.6815 9.34711 10.0143 10.0143C9.34711 10.6815 8.93674 11.3508 8.63008 12.14C8.33338 12.9034 8.13049 13.7758 8.07222 15.0533C8.01382 16.3333 8 16.742 8 20.0015C8 23.2608 8.01382 23.6695 8.07222 24.9496C8.13049 26.227 8.33338 27.0994 8.63008 27.8628C8.93674 28.652 9.34711 29.3213 10.0143 29.9886C10.6815 30.6557 11.3508 31.0661 12.14 31.3728C12.9034 31.6695 13.7758 31.8724 15.0533 31.9306C16.3333 31.989 16.742 32.0029 20.0015 32.0029C23.2608 32.0029 23.6695 31.989 24.9496 31.9306C26.227 31.8724 27.0994 31.6695 27.8628 31.3728C28.652 31.0661 29.3213 30.6557 29.9886 29.9886C30.6557 29.3213 31.0661 28.652 31.3728 27.8628C31.6695 27.0994 31.8724 26.227 31.9306 24.9496C31.989 23.6695 32.0029 23.2608 32.0029 20.0015C32.0029 16.742 31.989 16.3333 31.9306 15.0533C31.8724 13.7758 31.6695 12.9034 31.3728 12.14C31.0661 11.3508 30.6557 10.6815 29.9886 10.0143C29.3213 9.34711 28.652 8.93674 27.8628 8.63008C27.0994 8.33338 26.227 8.13049 24.9496 8.07222C23.6695 8.01382 23.2608 8 20.0015 8ZM20.0015 10.1624C23.2059 10.1624 23.5855 10.1747 24.851 10.2324C26.0212 10.2858 26.6566 10.4813 27.0795 10.6456C27.6397 10.8633 28.0395 11.1234 28.4595 11.5434C28.8795 11.9633 29.1395 12.3631 29.3572 12.9233C29.5216 13.3462 29.7171 13.9817 29.7705 15.1518C29.8282 16.4173 29.8404 16.7969 29.8404 20.0015C29.8404 23.2059 29.8282 23.5855 29.7705 24.851C29.7171 26.0212 29.5216 26.6566 29.3572 27.0795C29.1395 27.6397 28.8795 28.0395 28.4595 28.4595C28.0395 28.8795 27.6397 29.1395 27.0795 29.3572C26.6566 29.5216 26.0212 29.7171 24.851 29.7705C23.5857 29.8282 23.2062 29.8404 20.0015 29.8404C16.7967 29.8404 16.4172 29.8282 15.1518 29.7705C13.9817 29.7171 13.3462 29.5216 12.9233 29.3572C12.3631 29.1395 11.9633 28.8795 11.5434 28.4595C11.1235 28.0395 10.8633 27.6397 10.6456 27.0795C10.4813 26.6566 10.2858 26.0212 10.2324 24.851C10.1747 23.5855 10.1624 23.2059 10.1624 20.0015C10.1624 16.7969 10.1747 16.4173 10.2324 15.1518C10.2858 13.9817 10.4813 13.3462 10.6456 12.9233C10.8633 12.3631 11.1234 11.9633 11.5434 11.5434C11.9633 11.1234 12.3631 10.8633 12.9233 10.6456C13.3462 10.4813 13.9817 10.2858 15.1518 10.2324C16.4173 10.1747 16.7969 10.1624 20.0015 10.1624Z" fill="white"/>
<path fill-rule="evenodd" clip-rule="evenodd" d="M20.0013 24.0022C17.7919 24.0022 16.0008 22.2112 16.0008 20.0018C16.0008 17.7923 17.7919 16.0013 20.0013 16.0013C22.2107 16.0013 24.0017 17.7923 24.0017 20.0018C24.0017 22.2112 22.2107 24.0022 20.0013 24.0022ZM20.0013 13.8389C16.5976 13.8389 13.8384 16.5981 13.8384 20.0018C13.8384 23.4055 16.5976 26.1647 20.0013 26.1647C23.405 26.1647 26.1642 23.4055 26.1642 20.0018C26.1642 16.5981 23.405 13.8389 20.0013 13.8389Z" fill="white"/>
<path fill-rule="evenodd" clip-rule="evenodd" d="M27.8481 13.5955C27.8481 14.3909 27.2033 15.0356 26.4079 15.0356C25.6126 15.0356 24.9678 14.3909 24.9678 13.5955C24.9678 12.8001 25.6126 12.1553 26.4079 12.1553C27.2033 12.1553 27.8481 12.8001 27.8481 13.5955Z" fill="white"/>
</svg>
