<svg viewBox="0 0 40 40" fill="none" xmlns="http://www.w3.org/2000/svg">
<circle cx="20" cy="20" r="20" fill="black"/>
<path fill-rule="evenodd" clip-rule="evenodd" d="M32.1182 20.0733C32.1182 13.4054 26.7192 8 20.0591 8C13.399 8 8 13.4054 8 20.0733C8 26.0995 12.4098 31.0943 18.1749 32V23.5633H15.113V20.0733H18.1749V17.4134C18.1749 14.3875 19.9752 12.7161 22.7298 12.7161C24.0491 12.7161 25.4292 12.952 25.4292 12.952V15.9231H23.9086C22.4105 15.9231 21.9433 16.8538 21.9433 17.8086V20.0733H25.2879L24.7532 23.5633H21.9433V32C27.7084 31.0943 32.1182 26.0995 32.1182 20.0733Z" fill="white"/>
</svg>
