<svg viewBox="0 0 40 40" fill="none" xmlns="http://www.w3.org/2000/svg">
<circle cx="20" cy="20" r="20" fill="black"/>
<path d="M15.2629 32C26.3778 32 32.4573 22.7657 32.4573 14.7577C32.4573 14.4954 32.4573 14.2343 32.4396 13.9744C33.6223 13.1166 34.6432 12.0544 35.4545 10.8376C34.3516 11.3277 33.1816 11.6491 31.9836 11.7911C33.2452 11.0337 34.1893 9.84258 34.6404 8.43927C33.4542 9.14514 32.1564 9.6426 30.8031 9.91019C29.8919 8.93865 28.6869 8.29533 27.3744 8.07976C26.0619 7.8642 24.7152 8.08842 23.5426 8.71772C22.37 9.34702 21.4369 10.3463 20.8877 11.561C20.3385 12.7756 20.2039 14.1379 20.5046 15.4371C18.102 15.3163 15.7516 14.6902 13.6059 13.5994C11.4603 12.5086 9.56734 10.9776 8.05004 9.10561C7.27726 10.4397 7.04057 12.0189 7.38817 13.5218C7.73576 15.0248 8.64151 16.3383 9.92099 17.1951C8.95929 17.1665 8.01855 16.9064 7.17818 16.4366C7.17818 16.4614 7.17818 16.4874 7.17818 16.5134C7.17856 17.9125 7.66154 19.2684 8.54521 20.3511C9.42887 21.4339 10.6588 22.1767 12.0264 22.4538C11.1367 22.6971 10.2033 22.7327 9.29773 22.5577C9.68389 23.7619 10.4357 24.8148 11.448 25.5694C12.4603 26.324 13.6825 26.7424 14.9436 26.7661C12.8037 28.4526 10.1602 29.3681 7.43856 29.3653C6.95775 29.3644 6.4774 29.3352 6 29.2779C8.76359 31.0563 11.9792 31.9997 15.2629 31.9953" fill="white"/>
</svg>
