<svg viewBox="0 0 40 40" fill="none" xmlns="http://www.w3.org/2000/svg">
<circle cx="20" cy="20" r="20" fill="black"/>
<path d="M32 12.3639V12.3637C32 12.3633 31.9998 12.363 31.9998 12.3626C31.9997 12.3253 31.9941 12.2876 31.9821 12.2507C31.9802 12.245 31.9762 12.2407 31.9741 12.2351C31.9688 12.2214 31.9612 12.2097 31.9544 12.1969C31.9407 12.1708 31.9252 12.1467 31.906 12.1251C31.8959 12.1137 31.8857 12.1036 31.8743 12.0936C31.8522 12.0741 31.8281 12.0583 31.8019 12.0447C31.7895 12.0383 31.7784 12.031 31.7653 12.026C31.7246 12.0105 31.6818 12 31.6364 12H8.36362C8.31824 12 8.27539 12.0105 8.2347 12.026C8.22156 12.031 8.21044 12.0383 8.19809 12.0448C8.17193 12.0584 8.14785 12.0741 8.12573 12.0935C8.11431 12.1036 8.10406 12.1137 8.09396 12.1251C8.07477 12.1467 8.05934 12.1708 8.0456 12.1969C8.03879 12.2097 8.03119 12.2214 8.02595 12.2351C8.02384 12.2407 8.0198 12.245 8.01793 12.2507C8.00591 12.2876 8.0003 12.3253 8.00021 12.3626C8.00021 12.363 8 12.3633 8 12.3637V12.3639C8 12.3642 8 12.3644 8 12.3647V27.2113C8 27.225 8.00633 27.2366 8.00781 27.25C8.01043 27.2746 8.01459 27.2979 8.02233 27.3219C8.03014 27.346 8.04053 27.3674 8.05292 27.389C8.05952 27.4006 8.06124 27.4137 8.06925 27.4247C8.07417 27.4315 8.08218 27.4339 8.08746 27.4402C8.11247 27.4703 8.14215 27.4942 8.17554 27.515C8.18793 27.5227 8.19803 27.5329 8.2111 27.539C8.25782 27.5608 8.30866 27.5749 8.36362 27.5749H31.6364C31.6913 27.5749 31.7422 27.5608 31.7889 27.539C31.802 27.5329 31.8121 27.5227 31.8245 27.515C31.8578 27.4942 31.8875 27.4703 31.9125 27.4402C31.9178 27.4339 31.9258 27.4315 31.9307 27.4247C31.9388 27.4137 31.9405 27.4006 31.9471 27.389C31.9595 27.3674 31.9699 27.346 31.9777 27.3219C31.9854 27.2979 31.9896 27.2746 31.9922 27.25C31.9937 27.2366 32 27.225 32 27.2113V12.3647C32 12.3644 32 12.3642 32 12.3639ZM31.2727 26.4988L22.0543 19.8202L31.2727 13.08V26.4988V26.4988ZM8.72728 13.08L17.9457 19.8202L8.72728 26.4988V13.08ZM18.5626 20.2713L19.7853 21.1653C19.8493 21.212 19.9247 21.2354 20 21.2354C20.0753 21.2354 20.1507 21.212 20.2147 21.1653L21.4374 20.2713L30.5147 26.8477H9.48533L18.5626 20.2713ZM30.5229 12.7273L20 20.4213L9.4771 12.7273H30.5229Z" fill="white"/>
</svg>
